<svg width="150" height="46" viewBox="0 0 150 46" fill="none" xmlns="http://www.w3.org/2000/svg">
<g clip-path="url(#clip0_1420_4290)">
<path d="M21.6724 45.6258C21.2424 45.8726 20.7647 46 20.287 46C19.8093 46 19.3315 45.8726 18.9016 45.6258L1.38537 35.5142C0.525487 35.0205 0 34.1049 0 33.1176V12.8864C0 11.8991 0.525487 10.9835 1.38537 10.4898L18.9096 0.370229C19.7695 -0.12341 20.8204 -0.12341 21.6803 0.370229L39.2045 10.4898C40.0644 10.9835 40.5899 11.8991 40.5899 12.8864V33.1176C40.5899 34.1049 40.0644 35.0205 39.2045 35.5142L21.6803 45.6338L21.6724 45.6258Z" fill="url(#paint0_linear_1420_4290)"/>
<path d="M11.0676 13.7462C11.1074 13.7462 11.1472 13.7383 11.179 13.7223L19.6107 11.8831C19.7461 11.8592 19.8575 11.7478 19.8575 11.6045V9.17607C19.8496 9.03276 19.7302 8.91333 19.5789 8.91333C19.555 8.91333 19.5311 8.92129 19.5072 8.92925H19.4754C19.4754 8.92925 19.4754 8.92925 19.4674 8.92925L10.9482 13.2048C10.8606 13.2526 10.7969 13.3481 10.7969 13.4516C10.7969 13.6109 10.9243 13.7303 11.0755 13.7303L11.0676 13.7462Z" fill="white"/>
<path d="M11.7138 28.1733C11.6819 28.2211 11.666 28.2689 11.666 28.3246C11.666 28.4838 11.7934 28.6033 11.9447 28.6033H28.6408C28.8001 28.6033 28.9195 28.4759 28.9195 28.3246C28.9195 28.2689 28.8956 28.2211 28.8717 28.1733L20.5197 13.4199C20.4719 13.3482 20.3843 13.2925 20.2888 13.2925C20.1932 13.2925 20.1057 13.3482 20.0579 13.4199L11.7058 28.1733H11.7138ZM22.3907 20.8324C23.3223 20.8324 24.3175 21.5251 24.3175 23.4758C24.3175 25.4264 23.3223 26.1191 22.3907 26.1191C21.4592 26.1191 20.456 25.4264 20.456 23.4758C20.456 21.5251 21.4592 20.8324 22.3907 20.8324ZM16.4671 25.53C16.4671 24.3675 17.2155 23.8102 18.0196 23.3723C18.9432 22.8786 19.0149 22.6637 19.0149 22.393C19.0149 22.2258 18.9512 21.8356 18.362 21.8356C17.9161 21.8356 17.6295 22.1621 17.6295 22.6716C17.6295 22.7114 17.5976 22.7353 17.5658 22.7353H16.6024C16.6024 22.7353 16.5387 22.7035 16.5387 22.6716C16.5387 21.7799 17.112 20.8165 18.362 20.8165C19.612 20.8165 20.1136 21.6366 20.1136 22.4009C20.1136 23.4121 19.397 23.8022 18.569 24.256C18.2028 24.4551 17.7808 24.7178 17.6932 24.9965H20.034C20.034 24.9965 20.0977 25.0284 20.0977 25.0602V25.9599C20.0977 25.9599 20.0658 26.0236 20.034 26.0236H16.5467C16.5467 26.0236 16.483 25.9917 16.483 25.9599V25.53H16.4671Z" fill="white"/>
<path d="M22.389 25.0919C23.1773 25.0919 23.241 23.8498 23.241 23.4676C23.241 22.982 23.1613 21.8354 22.389 21.8354C21.6167 21.8354 21.5371 22.974 21.5371 23.4676C21.5371 23.8498 21.6008 25.0919 22.389 25.0919Z" fill="white"/>
<path d="M21.8004 12.9421C21.8004 12.9421 21.7686 12.9421 21.7527 12.9341L21.681 12.9182C21.5297 12.9182 21.4023 13.0456 21.4023 13.2048C21.4023 13.2606 21.4183 13.3083 21.4501 13.3482L29.3722 27.2815C29.42 27.3532 29.4996 27.4009 29.5952 27.4009C29.7464 27.4009 29.8659 27.2815 29.8738 27.1382L32.7242 15.4899C32.7242 15.474 32.7322 15.466 32.7322 15.4501C32.7322 15.3148 32.6287 15.2033 32.4933 15.1794L21.7845 12.9501L21.8004 12.9421Z" fill="white"/>
<path d="M20.9732 11.8673L29.4049 13.7145C29.4368 13.7304 29.4766 13.7383 29.5164 13.7383C29.6756 13.7383 29.795 13.611 29.795 13.4597C29.795 13.3482 29.7313 13.2606 29.6438 13.2129L21.1245 8.93731C21.1245 8.93731 21.1245 8.93731 21.1165 8.93731L21.0847 8.92139C21.0847 8.92139 21.0369 8.92139 21.013 8.92139C20.8618 8.92139 20.7423 9.04082 20.7344 9.18413V11.6125C20.7344 11.7558 20.8458 11.8673 20.9812 11.8832L20.9732 11.8673Z" fill="white"/>
<path d="M7.8442 15.4899L10.6946 27.1382C10.7025 27.2894 10.822 27.4089 10.9732 27.4089C11.0688 27.4089 11.1484 27.3611 11.1962 27.2894L19.1183 13.3561C19.1422 13.3083 19.1661 13.2685 19.1661 13.2127C19.1661 13.0615 19.0466 12.9341 18.8874 12.9341L18.8157 12.942C18.7998 12.942 18.7839 12.942 18.768 12.95L8.05917 15.1793C7.92382 15.2032 7.82031 15.3147 7.82031 15.45C7.82031 15.466 7.82031 15.4739 7.82827 15.4899H7.8442Z" fill="white"/>
<path d="M16.3619 34.7656L10.7886 29.7098H10.7726C10.7249 29.6779 10.6691 29.6541 10.6054 29.6541C10.5417 29.6541 10.486 29.6779 10.4462 29.7098H10.4303L8.9812 30.5776C8.89362 30.6334 8.83789 30.721 8.83789 30.8245C8.83789 30.928 8.89362 31.0155 8.9812 31.0633L15.9957 35.1955C16.0355 35.2115 16.0832 35.2354 16.131 35.2354C16.2902 35.2354 16.4097 35.108 16.4097 34.9567C16.4097 34.885 16.3778 34.8213 16.338 34.7736L16.3619 34.7656Z" fill="white"/>
<path d="M10.0091 28.9536L10.033 28.9376C10.1126 28.8899 10.1683 28.8023 10.1683 28.6988C10.1683 28.6829 10.1683 28.6669 10.1604 28.651L8.29727 20.084C8.28135 19.9486 8.16192 19.8372 8.02656 19.8372C7.89121 19.8372 7.77178 19.9486 7.75586 20.084V20.1158C7.75586 20.1158 7.75586 20.1158 7.75586 20.1238L8.10618 29.5905C8.10618 29.5905 8.10618 29.5905 8.10618 29.5985C8.10618 29.7577 8.23357 29.8771 8.38485 29.8771C8.43262 29.8771 8.47243 29.8612 8.51224 29.8373L10.0011 28.9536C10.0011 28.9536 10.0091 28.9536 10.017 28.9456L10.0091 28.9536Z" fill="white"/>
<path d="M32.8441 20.1236V20.0918C32.8282 19.9564 32.7087 19.845 32.5734 19.845C32.438 19.845 32.3186 19.9564 32.3027 20.0918L30.4396 28.6588C30.4396 28.6747 30.4316 28.6907 30.4316 28.7066C30.4316 28.8101 30.4874 28.8897 30.567 28.9454L30.5909 28.9614C30.5909 28.9614 30.5988 28.9614 30.6068 28.9693L32.0957 29.8611C32.1355 29.877 32.1753 29.8929 32.2231 29.8929C32.3823 29.8929 32.5017 29.7655 32.5017 29.6142C32.5017 29.6142 32.5017 29.6142 32.5017 29.6063L32.8521 20.1396C32.8521 20.1396 32.8521 20.1396 32.8521 20.1316L32.8441 20.1236Z" fill="white"/>
<path d="M31.1966 32.3691C30.695 32.3691 30.2969 32.7752 30.2969 33.2768C30.2969 33.7784 30.7029 34.1845 31.1966 34.1845C31.6902 34.1845 32.1042 33.7784 32.1042 33.2768C32.1042 32.7752 31.6982 32.3691 31.1966 32.3691ZM31.1966 34.0889C30.7507 34.0889 30.3845 33.7227 30.3845 33.2768C30.3845 32.8309 30.7507 32.4567 31.1966 32.4567C31.6424 32.4567 32.0087 32.823 32.0087 33.2768C32.0087 33.7306 31.6424 34.0889 31.1966 34.0889Z" fill="white"/>
<path d="M31.5948 30.5857L30.1457 29.7178H30.1298C30.082 29.686 30.0263 29.6621 29.9706 29.6621C29.9148 29.6621 29.8511 29.686 29.8113 29.7178H29.7954L24.222 34.7737C24.1822 34.8294 24.1504 34.8931 24.1504 34.9647C24.1504 35.124 24.2778 35.2434 24.4291 35.2434C24.4768 35.2434 24.5246 35.2275 24.5644 35.2036L31.5789 31.0793C31.6664 31.0236 31.7222 30.936 31.7222 30.8325C31.7222 30.729 31.6664 30.6414 31.5789 30.5937L31.5948 30.5857Z" fill="white"/>
<path d="M31.6257 33.0697C31.6257 32.8866 31.5062 32.7751 31.3152 32.7751H30.8613V33.7784H30.9569V33.3643H31.2833L31.5142 33.7784H31.6177L31.3789 33.3564C31.5301 33.3325 31.6257 33.221 31.6257 33.0697ZM31.3152 33.2688H30.9489V32.8627H31.3072C31.3868 32.8627 31.5301 32.8866 31.5301 33.0618C31.5301 33.2051 31.4187 33.2608 31.3152 33.2608V33.2688Z" fill="white"/>
<path d="M28.3047 29.7657C28.3047 29.6145 28.1853 29.495 28.034 29.4871H12.556C12.3968 29.4871 12.2773 29.6145 12.2773 29.7657C12.2773 29.8533 12.3251 29.9329 12.3888 29.9887L20.1119 37.027C20.1596 37.0668 20.2233 37.0907 20.287 37.0907C20.3507 37.0907 20.4144 37.0668 20.4622 37.027L28.1853 29.9887C28.249 29.9329 28.2967 29.8613 28.2967 29.7737L28.3047 29.7657Z" fill="white"/>
<path d="M73.9981 34.2403C73.9981 35.0843 73.6478 35.7849 72.9471 36.3502C72.2465 36.9155 71.4423 37.2022 70.5188 37.2022C69.8898 37.2022 69.2926 37.0588 68.7432 36.7643C68.1939 36.4776 67.7162 36.0397 67.3181 35.4585L62.1826 27.9504C61.8164 27.4249 61.4262 27.0348 61.0202 26.788C60.6141 26.5411 60.1285 26.4138 59.5791 26.4138H57.0074V33.4839C57.0074 34.5906 56.6889 35.4665 56.0599 36.1114C55.4309 36.7563 54.5551 37.0827 53.4484 37.0827C52.3417 37.0827 51.4659 36.7643 50.821 36.1114C50.176 35.4665 49.8496 34.5906 49.8496 33.4839V12.345C49.8496 11.2622 50.1362 10.4342 50.7175 9.85296C51.2987 9.27174 52.1267 8.98511 53.2095 8.98511H63.1301C66.498 8.98511 69.0378 9.7176 70.7337 11.1746C72.4296 12.6396 73.2815 14.7495 73.2815 17.5203C73.2815 19.6302 72.7003 21.4137 71.5458 22.8707C70.3834 24.3357 68.7512 25.315 66.6493 25.8166C67.5171 25.952 68.2735 26.2386 68.9184 26.6845C69.5633 27.1303 70.2003 27.8071 70.8372 28.6988L73.2895 32.218C73.7672 32.9266 73.9981 33.6034 73.9981 34.2324V34.2403ZM65.447 20.2114C66.1477 19.7098 66.49 18.8977 66.49 17.7591C66.49 16.6206 66.1397 15.7607 65.447 15.2511C64.7464 14.7336 63.5998 14.4788 61.9915 14.4788H56.9357V20.9598H61.9915C63.5998 20.9598 64.7543 20.713 65.447 20.2114Z" fill="#29212E"/>
<path d="M78.5053 35.9202C76.8891 35.0921 75.6311 33.9138 74.7553 32.3851C73.8715 30.8564 73.4336 29.065 73.4336 27.0108C73.4336 24.9566 73.8715 23.1731 74.7553 21.6604C75.639 20.1476 76.8811 18.9772 78.4894 18.1651C80.0977 17.345 81.9767 16.939 84.1424 16.939C86.308 16.939 88.187 17.345 89.7953 18.1651C91.4036 18.9852 92.6457 20.1476 93.5295 21.6604C94.4133 23.1731 94.8512 24.9566 94.8512 27.0108C94.8512 29.065 94.4133 30.8564 93.5295 32.3851C92.6457 33.9138 91.4036 35.0921 89.7953 35.9202C88.187 36.7482 86.308 37.1622 84.1424 37.1622C81.9767 37.1622 80.1296 36.7482 78.5133 35.9202H78.5053ZM87.8924 27.0108C87.8924 23.7464 86.6424 22.1142 84.1424 22.1142C81.6423 22.1142 80.3923 23.7464 80.3923 27.0108C80.3923 30.2752 81.6423 31.9074 84.1424 31.9074C86.6424 31.9074 87.8924 30.2752 87.8924 27.0108Z" fill="#29212E"/>
<path d="M96.7924 36.2705C96.1236 35.7291 95.7812 34.917 95.7812 33.8421V12.0743C95.7812 10.9914 96.1156 10.1793 96.7924 9.62199C97.4612 9.07261 98.2972 8.79395 99.3004 8.79395C100.304 8.79395 101.14 9.07261 101.808 9.62199C102.477 10.1714 102.82 10.9914 102.82 12.0743V33.8501C102.82 34.9329 102.485 35.7371 101.808 36.2785C101.14 36.8199 100.304 37.0906 99.3004 37.0906C98.2972 37.0906 97.4612 36.8199 96.7924 36.2785V36.2705Z" fill="#29212E"/>
<path d="M105.312 36.2705C104.643 35.7291 104.301 34.917 104.301 33.8421V12.0743C104.301 10.9914 104.635 10.1793 105.312 9.62199C105.981 9.07261 106.817 8.79395 107.82 8.79395C108.823 8.79395 109.659 9.07261 110.328 9.62199C110.997 10.1714 111.339 10.9914 111.339 12.0743V33.8501C111.339 34.9329 111.005 35.7371 110.328 36.2785C109.659 36.8199 108.823 37.0906 107.82 37.0906C106.817 37.0906 105.981 36.8199 105.312 36.2785V36.2705Z" fill="#29212E"/>
<path d="M122.183 9.61392C127.717 9.61392 130.217 13.1411 130.217 16.6602C130.217 20.8641 127.677 22.9501 122.032 26.0155C117.374 28.5553 114.874 30.6414 114.603 34.6144H130.217V36.0157H113.162V35.2991C113.162 29.6541 116.872 27.1938 121.387 24.7655C126.841 21.8116 128.815 20.1396 128.815 16.6602C128.815 14.0487 127.072 10.9754 122.183 10.9754C117.828 10.9754 115.097 13.9691 115.057 18.2845H113.656C113.656 13.6586 116.61 9.60596 122.183 9.60596V9.61392Z" fill="#29212E"/>
<path d="M149.406 23.0617C149.406 32.9504 144.669 36.5094 140.274 36.5094C135.879 36.5094 131.102 32.9504 131.102 23.0617C131.102 13.173 135.839 9.61401 140.274 9.61401C144.708 9.61401 149.406 13.1411 149.406 23.0617ZM148.005 23.0617C148.005 15.4819 145.122 10.9357 140.274 10.9357C135.425 10.9357 132.503 15.4819 132.503 23.0617C132.503 30.6414 135.385 35.1479 140.274 35.1479C145.162 35.1479 148.005 30.6016 148.005 23.0617Z" fill="#29212E"/>
</g>
<defs>
<linearGradient id="paint0_linear_1420_4290" x1="4.51441" y1="38.7706" x2="36.0675" y2="7.21748" gradientUnits="userSpaceOnUse">
<stop stop-color="#792696"/>
<stop offset="0.15" stop-color="#7D2495"/>
<stop offset="0.32" stop-color="#8B2093"/>
<stop offset="0.5" stop-color="#A11991"/>
<stop offset="0.69" stop-color="#C10F8D"/>
<stop offset="0.88" stop-color="#E90388"/>
<stop offset="0.93" stop-color="#F60087"/>
</linearGradient>
<clipPath id="clip0_1420_4290">
<rect width="149.405" height="46" fill="white"/>
</clipPath>
</defs>
</svg>
