<?xml version="1.0" standalone="no"?>
<!DOCTYPE svg PUBLIC "-//W3C//DTD SVG 20010904//EN"
 "http://www.w3.org/TR/2001/REC-SVG-20010904/DTD/svg10.dtd">
<svg version="1.0" xmlns="http://www.w3.org/2000/svg"
 width="550.000000pt" height="550.000000pt" viewBox="0 0 550.000000 550.000000"
 preserveAspectRatio="xMidYMid meet">
<metadata>
Created by potrace 1.14, written by Peter Selinger 2001-2017
</metadata>
<g transform="translate(0.000000,550.000000) scale(0.100000,-0.100000)"
fill="#000000" stroke="none">
<path d="M0 5341 l0 -158 41 -6 c23 -3 67 -1 97 3 30 5 71 7 91 3 20 -3 45 -7
56 -8 11 -1 20 -3 20 -4 0 -2 29 -4 65 -6 82 -4 200 -32 223 -52 14 -13 17
-13 17 -2 1 10 6 7 18 -7 10 -11 25 -20 34 -18 10 1 20 -7 24 -18 3 -11 12
-17 20 -14 8 3 14 -1 14 -10 0 -8 7 -22 15 -30 10 -11 15 -11 15 -3 0 6 9 1
19 -13 13 -15 18 -33 14 -47 -4 -17 -2 -20 11 -15 11 4 16 1 16 -11 0 -9 4
-13 10 -10 9 6 14 -8 11 -27 0 -5 4 -7 11 -5 6 1 23 -29 38 -68 24 -60 26 -72
14 -86 -8 -8 -14 -20 -14 -25 0 -5 7 -1 15 10 13 17 15 15 25 -24 22 -83 16
-171 -11 -155 -5 4 -9 2 -9 -4 0 -5 4 -13 10 -16 10 -6 10 -55 0 -55 -3 0 -6
-10 -7 -22 -1 -11 -8 -25 -15 -29 -8 -6 -9 -9 -2 -9 7 0 14 -9 17 -21 5 -18 2
-20 -20 -15 -15 4 -22 3 -19 -3 4 -5 2 -12 -3 -15 -15 -10 -9 -76 8 -76 11 0
11 -4 -3 -19 -11 -12 -14 -21 -7 -26 17 -10 13 -25 -4 -19 -23 9 -48 -15 -34
-32 8 -10 8 -14 1 -14 -6 0 -14 5 -17 10 -8 13 -25 3 -25 -15 0 -8 6 -12 13
-10 7 3 13 -5 14 -22 1 -16 3 -37 5 -48 2 -14 -2 -20 -14 -19 -10 1 -18 -2
-18 -8 0 -5 -4 -7 -9 -3 -5 3 -12 -4 -16 -15 -3 -11 -12 -20 -20 -20 -7 0 -21
-3 -30 -7 -15 -5 -16 -3 -5 16 16 30 11 32 -31 12 -19 -10 -40 -16 -47 -13 -7
2 -12 -1 -12 -6 0 -17 -104 -70 -170 -87 -35 -9 -93 -28 -129 -42 -56 -21 -77
-24 -143 -20 -44 3 -78 1 -78 -4 0 -5 12 -10 28 -10 15 -1 2 -5 -28 -9 -30 -3
-56 -3 -58 1 -2 4 -10 5 -18 2 -12 -4 -14 -266 -14 -1924 l0 -1919 1533 2
c1343 3 1532 5 1529 18 -3 11 2 10 17 -4 20 -18 21 -18 40 5 11 13 20 27 21
32 0 4 7 7 16 7 11 0 8 -7 -10 -24 -15 -13 -26 -26 -26 -30 0 -3 40 -6 88 -6
85 0 89 1 100 25 10 23 14 24 39 13 16 -7 35 -17 43 -24 9 -8 50 -12 108 -12
83 -1 92 1 92 18 0 10 5 22 11 26 9 5 10 -1 5 -19 l-6 -26 164 0 164 -1 4 41
c2 27 -1 43 -9 46 -7 3 -13 10 -13 16 0 5 9 2 19 -7 12 -11 18 -26 15 -42 -2
-13 0 -24 6 -24 5 0 10 -7 10 -15 0 -13 97 -15 770 -15 l770 0 0 391 c0 388 0
391 -19 368 l-20 -24 9 40 c5 22 10 45 10 50 0 6 -28 25 -62 43 -35 18 -74 42
-88 55 -42 38 -82 96 -74 110 4 6 4 9 -1 5 -4 -4 -26 19 -49 50 -23 31 -71 83
-107 114 -73 65 -60 77 21 20 55 -38 115 -108 150 -172 41 -77 147 -159 208
-160 19 0 22 5 22 35 0 21 -5 35 -12 35 -9 0 -8 3 2 10 25 16 5 21 -29 7 -17
-7 -28 -17 -24 -21 5 -5 -3 -5 -17 -2 -30 9 -92 75 -83 88 3 6 9 5 14 -3 7
-11 12 -12 29 -1 11 7 20 8 20 4 0 -9 15 -12 50 -12 54 0 50 -55 50 731 -1
449 -4 731 -10 734 -6 3 -7 -2 -4 -12 3 -10 -9 8 -26 40 -27 51 -30 62 -20 95
15 56 12 89 -12 131 l-21 38 32 56 c33 58 45 67 55 45 3 -7 4 -2 3 12 -1 17
-9 26 -24 28 -16 2 -31 -11 -62 -54 -45 -63 -49 -89 -25 -160 15 -44 14 -49
-5 -103 -16 -43 -21 -82 -22 -171 -1 -63 1 -128 2 -145 3 -19 -1 -30 -8 -31
-7 -1 -24 -2 -37 -3 -19 -1 -26 -9 -34 -42 -12 -49 -8 -63 32 -107 28 -29 35
-32 69 -26 37 6 38 5 27 -15 -6 -12 -22 -27 -35 -33 -25 -11 -44 -5 -122 42
-33 20 -46 13 -18 -10 13 -11 13 -15 0 -33 -11 -15 -12 -24 -3 -34 6 -7 7 -13
3 -13 -4 0 0 -11 9 -25 16 -24 16 -25 -9 -25 -14 0 -25 -3 -25 -6 0 -17 89
-129 118 -149 30 -20 31 -23 13 -28 -25 -6 -71 28 -137 102 -26 28 -66 63 -90
77 l-44 26 19 36 c11 20 38 55 60 77 33 31 41 46 41 75 0 46 33 111 65 128 27
13 29 26 25 120 -2 44 4 65 30 114 38 71 41 126 11 188 l-19 40 68 105 c68
103 69 104 99 95 28 -8 31 -7 31 16 0 17 -7 25 -24 30 -42 10 -59 -3 -113 -83
-91 -139 -100 -165 -73 -234 24 -59 25 -85 5 -119 -8 -14 -19 -35 -24 -47 -5
-11 -16 -25 -23 -29 -10 -6 -10 -5 -2 7 7 8 15 29 19 46 3 18 11 35 16 38 5 4
5 13 0 23 -5 9 -17 36 -27 59 -11 24 -24 43 -31 43 -18 0 -38 41 -25 49 27 16
-25 37 -113 45 -15 2 -40 -25 -40 -42 0 -22 -25 -27 -25 -5 0 15 -2 15 -10 3
-6 -9 -5 -20 3 -30 11 -13 10 -13 -6 -1 -16 13 -20 13 -28 0 -7 -12 -9 -12 -9
1 -1 12 -3 11 -14 -3 -10 -12 -16 -15 -21 -7 -5 8 -14 6 -31 -5 -16 -11 -30
-13 -41 -7 -13 8 -9 14 23 36 21 14 47 26 58 26 36 0 131 79 215 179 24 29 46
50 49 46 3 -3 0 -11 -6 -17 -7 -7 -12 -28 -12 -48 0 -32 3 -36 28 -37 15 0 19
1 10 4 -13 3 -18 15 -18 40 0 49 20 86 93 173 34 41 79 101 100 132 21 31 42
60 48 64 12 7 49 89 49 107 0 13 -39 -33 -40 -46 -1 -26 -146 -227 -224 -309
-50 -53 -113 -122 -141 -153 -54 -61 -109 -102 -165 -124 -19 -8 -43 -21 -52
-29 -10 -8 -18 -11 -18 -7 0 5 -5 4 -12 -3 -15 -15 -28 -15 -28 0 0 19 -72
118 -87 118 -19 0 -17 -7 21 -53 18 -23 37 -52 40 -64 4 -11 22 -33 41 -48 19
-14 35 -35 35 -46 0 -10 8 -27 19 -38 18 -18 18 -19 -6 -18 -14 0 -27 6 -30
14 -3 8 -16 19 -29 24 -14 5 -24 17 -24 28 0 11 -4 22 -9 25 -4 3 -11 19 -14
36 -9 44 -41 40 -71 -9 -14 -22 -30 -42 -36 -46 -19 -12 -10 15 20 57 30 41
38 72 21 82 -5 3 -32 -19 -61 -51 -40 -44 -50 -61 -46 -79 3 -13 1 -26 -5 -29
-6 -4 -8 -18 -5 -31 6 -21 3 -24 -26 -26 -18 0 -41 -1 -50 0 -9 1 -30 -14 -45
-33 -34 -40 -82 -63 -95 -43 -13 21 -10 27 17 34 14 3 34 18 46 32 14 18 33
28 62 31 37 5 44 11 62 47 11 23 37 60 58 83 49 55 52 108 7 153 -31 31 -60
32 -60 3 0 -9 -4 -14 -9 -10 -5 3 -13 0 -17 -6 -4 -8 -3 -9 5 -5 6 4 14 0 17
-9 9 -23 -1 -28 -20 -10 -12 13 -14 21 -5 37 13 24 4 84 -14 91 -7 4 -6 6 4 6
9 1 32 -10 52 -23 19 -13 39 -21 43 -18 4 4 3 1 -1 -7 -6 -11 -4 -13 8 -8 24
9 69 -48 61 -79 -8 -31 2 -31 19 1 7 14 25 34 39 43 85 57 117 84 248 213 80
78 164 158 188 177 24 20 50 49 59 66 8 17 43 61 77 97 33 37 84 97 111 135
28 38 53 71 58 72 12 6 8 22 -6 22 -7 0 -21 -15 -32 -32 -33 -57 -89 -118
-107 -118 -13 0 -19 11 -24 40 -6 35 -9 38 -25 29 -11 -5 -23 -8 -28 -5 -5 3
-21 -10 -35 -28 -14 -19 -22 -37 -17 -41 5 -3 11 0 14 7 2 7 3 4 1 -6 -2 -11
2 -26 8 -33 6 -7 7 -13 4 -13 -4 0 0 -7 9 -16 12 -13 19 -14 30 -4 9 7 15 8
15 2 0 -5 -7 -16 -16 -23 -9 -7 -28 -35 -44 -62 -29 -52 -150 -158 -150 -132
0 8 5 15 11 15 5 0 7 5 4 10 -3 6 -2 10 2 10 5 0 14 9 21 21 9 14 10 19 2 14
-9 -6 -9 -2 -1 13 6 12 18 25 25 29 12 6 13 17 4 53 -20 87 -33 115 -53 116
-11 0 -28 1 -37 2 -10 1 -26 19 -37 40 -11 20 -20 31 -21 24 0 -17 -72 -11
-94 7 -9 7 -18 29 -22 50 -11 65 -14 71 -41 71 -23 0 -25 3 -19 31 3 17 6 45
6 61 0 16 4 27 9 24 5 -3 11 12 15 34 3 22 11 40 16 40 5 0 7 6 4 14 -3 7 2
16 10 19 9 4 16 14 16 23 0 9 9 29 21 45 l20 29 -26 12 c-14 6 -24 16 -22 22
3 7 -12 12 -35 13 -22 1 -48 5 -57 9 -9 4 -23 8 -31 9 -8 1 -33 7 -55 15 -22
7 -47 15 -55 18 -17 5 -56 10 -120 16 -25 2 -61 9 -80 16 -80 30 -91 31 -106
19 -9 -7 -14 -4 -19 10 -7 22 -25 29 -25 9 0 -6 -10 -2 -23 10 -13 12 -35 22
-49 22 -15 0 -28 4 -30 10 -1 5 -30 11 -62 11 -32 1 -70 7 -84 15 -13 7 -30
10 -37 8 -7 -3 -16 -1 -20 5 -4 7 -44 11 -101 11 l-94 0 0 30 c0 17 -4 30 -10
30 -5 0 -10 7 -10 15 0 21 -30 31 -40 14 -7 -11 -10 -10 -16 4 -3 9 -12 17
-20 17 -7 0 -17 12 -20 28 -10 37 -45 84 -60 78 -7 -3 -15 3 -19 12 -5 14 -7
14 -15 2 -8 -13 -10 -12 -10 3 0 11 -8 17 -24 17 -13 0 -28 6 -34 13 -13 16
-3 67 13 67 7 0 18 7 25 15 7 8 20 15 30 15 34 0 65 24 62 47 -2 13 8 37 23
57 22 29 25 39 17 68 -6 23 -14 33 -28 33 -10 0 -25 4 -32 9 -7 4 -16 5 -19 2
-3 -3 -20 3 -38 14 -18 11 -35 17 -38 13 -4 -3 -14 11 -23 33 -20 49 -21 49
-38 35 -10 -8 -16 -9 -21 -2 -10 18 -46 34 -43 20 2 -6 -3 -14 -9 -16 -8 -3
-13 3 -13 14 0 11 -5 24 -11 30 -14 14 -2 53 17 53 16 0 18 28 4 65 -8 21 -14
24 -35 19 -15 -4 -25 -2 -25 5 0 6 -13 11 -29 11 -32 0 -41 9 -46 43 -7 59
-16 72 -46 73 -21 1 -40 14 -69 45 -21 24 -39 47 -40 52 0 4 -9 7 -20 7 -17 0
-39 7 -95 31 -11 5 -71 18 -133 29 -71 12 -128 29 -157 44 l-44 25 -1341 1
-1340 0 0 -159z m2293 -168 c-7 -2 -19 -2 -25 0 -7 3 -2 5 12 5 14 0 19 -2 13
-5z m360 -53 c25 -11 49 -25 52 -29 3 -5 14 -7 24 -4 28 7 48 -16 43 -49 -3
-16 0 -28 7 -28 6 0 11 5 11 10 0 6 4 10 10 10 15 0 40 -56 40 -90 0 -16 4
-30 10 -30 5 0 22 -26 37 -57 21 -42 35 -60 56 -66 31 -10 77 -48 77 -65 0 -6
-6 -13 -12 -15 -7 -3 -3 -6 8 -6 18 -1 23 -9 28 -45 4 -24 5 -54 2 -67 -3 -13
-8 -62 -11 -108 -2 -47 -8 -87 -12 -90 -5 -3 -9 -19 -11 -36 -2 -16 -8 -34
-13 -40 -5 -5 -9 -18 -9 -30 0 -11 -9 -35 -20 -53 -11 -18 -20 -41 -20 -52 0
-14 -7 -20 -21 -20 -15 0 -19 -5 -14 -19 3 -12 0 -21 -10 -25 -8 -3 -15 -14
-15 -25 0 -10 -9 -21 -20 -24 -11 -3 -20 -12 -20 -21 0 -9 -7 -16 -15 -16 -8
0 -15 -6 -15 -13 0 -8 -12 -19 -26 -25 -14 -7 -23 -16 -20 -21 3 -5 -5 -12
-19 -15 -15 -4 -25 -14 -25 -24 0 -13 -2 -14 -9 -3 -7 11 -11 10 -20 -5 -6
-11 -11 -15 -11 -10 0 5 -9 1 -19 -8 -11 -10 -25 -15 -32 -10 -8 4 -10 3 -5
-4 5 -8 0 -12 -13 -12 -11 0 -22 -4 -25 -8 -3 -5 -20 -7 -38 -6 -39 4 -70 -4
-63 -16 3 -4 -5 -8 -18 -7 -12 0 -31 -4 -41 -8 -15 -6 -17 -5 -11 5 6 10 3 12
-14 7 -13 -3 -30 -3 -38 0 -10 4 4 11 35 19 72 19 124 42 118 53 -3 5 -48 -4
-103 -20 -103 -31 -248 -50 -283 -37 -12 4 -33 5 -46 2 -31 -8 -116 15 -107
29 4 6 1 7 -6 3 -7 -5 -21 0 -32 10 -10 9 -19 14 -19 10 0 -15 -39 22 -101 94
-35 41 -68 78 -74 82 -7 5 -7 8 0 8 6 0 1 7 -9 15 -11 8 -16 15 -11 15 5 0 -1
7 -13 16 -12 8 -19 20 -16 26 7 10 -13 84 -28 104 -4 6 -8 22 -8 35 1 13 -4
51 -9 84 -9 52 -8 102 3 230 7 75 53 235 67 235 6 0 8 4 5 8 -2 4 -1 14 5 22
7 13 9 13 9 0 0 -13 1 -13 10 0 6 9 5 17 -3 22 -9 6 -9 8 1 8 6 0 12 9 12 20
0 11 12 26 28 34 15 8 23 15 19 16 -4 0 -3 9 3 19 5 11 19 19 30 18 14 -1 16
-4 8 -14 -6 -7 -18 -13 -27 -14 -9 0 -11 -3 -4 -5 8 -4 0 -20 -21 -49 -40 -52
-89 -183 -106 -282 -14 -88 -8 -240 14 -308 20 -62 20 -60 -1 -44 -15 13 -15
12 -3 -11 24 -46 73 -115 124 -175 39 -46 44 -55 21 -38 -16 12 -46 37 -64 57
-38 39 -51 44 -51 20 0 -48 194 -214 285 -244 19 -6 33 -15 30 -20 -3 -4 5 -8
18 -9 12 0 72 -3 132 -5 62 -3 95 -1 75 3 -41 9 -27 17 40 25 124 13 194 36
277 91 132 88 243 236 243 328 0 15 3 18 9 9 10 -16 21 -3 42 48 20 50 17 310
-4 365 -13 34 -16 36 -17 15 -1 -22 -3 -20 -17 14 l-16 38 -13 -28 -12 -29 -1
33 c-1 19 -10 47 -22 63 -20 29 -14 40 9 17 8 -8 12 -9 12 -1 0 22 -106 107
-175 139 -38 19 -119 47 -180 63 -60 16 -101 30 -89 30 42 2 137 -21 227 -54
81 -30 89 -31 65 -12 -38 31 -157 76 -227 86 -43 7 -48 9 -21 10 79 2 228 -55
300 -116 29 -24 32 -25 21 -5 -6 12 -20 26 -32 32 -11 6 -17 15 -14 21 4 5 3
8 -2 7 -4 -2 -37 14 -73 35 -52 30 -59 36 -34 32 17 -3 52 -14 77 -25z m-423
12 c0 -5 -23 -14 -52 -21 -60 -13 -168 -66 -249 -121 -32 -22 -59 -37 -62 -34
-3 3 -15 -11 -27 -30 -20 -33 -41 -53 -24 -23 21 36 46 66 53 64 5 -1 28 20
51 46 24 26 48 46 55 43 7 -2 21 1 31 8 25 16 126 57 167 66 45 11 57 11 57 2z
m98 1 c-10 -2 -28 -2 -40 0 -13 2 -5 4 17 4 22 1 32 -1 23 -4z m-161 -49 c-3
-3 -12 -4 -19 -1 -8 3 -5 6 6 6 11 1 17 -2 13 -5z m-69 -36 c-8 -7 -25 -19
-38 -27 -125 -73 -214 -137 -206 -150 3 -4 -4 -20 -15 -37 -32 -47 -76 -135
-89 -182 -7 -23 -15 -40 -17 -38 -11 10 30 133 71 213 37 75 53 95 102 132 59
44 168 101 192 101 11 0 11 -2 0 -12z m397 -46 c85 -22 131 -47 192 -104 99
-94 130 -186 120 -360 -9 -174 -66 -319 -156 -398 -105 -92 -315 -169 -424
-156 -118 15 -299 137 -350 237 -78 149 -53 441 48 579 57 78 229 212 286 223
43 8 223 -5 284 -21z m-571 -97 c-9 -14 -24 -25 -33 -25 -11 1 -7 8 14 25 37
31 39 31 19 0z m-74 -107 c-29 -51 -78 -205 -88 -281 -10 -80 0 -171 28 -236
20 -46 20 -46 0 -21 -11 14 -31 55 -46 91 -24 62 -25 70 -15 137 13 86 67 241
104 300 32 49 45 57 17 10z m1015 -133 c4 -26 -1 -15 -14 30 -11 39 -20 77
-19 85 0 23 28 -70 33 -115z m14 -222 c-11 -74 -32 -106 -25 -38 4 27 9 88 13
135 l7 85 7 -65 c4 -36 3 -89 -2 -117z m-1068 76 c-7 -42 -7 -87 -1 -129 12
-82 12 -80 -1 -80 -5 0 -8 4 -5 9 4 5 -1 36 -9 68 -16 62 -11 167 9 189 17 18
18 12 7 -57z m-851 5 c0 -8 -19 -13 -24 -6 -3 5 1 9 9 9 8 0 15 -2 15 -3z
m1887 -46 c-3 -7 -5 -2 -5 12 0 14 2 19 5 13 2 -7 2 -19 0 -25z m-1892 -18 c3
-6 -1 -7 -9 -4 -18 7 -21 14 -7 14 6 0 13 -4 16 -10z m2730 -60 c3 -5 1 -10
-4 -10 -6 0 -11 5 -11 10 0 6 2 10 4 10 3 0 8 -4 11 -10z m-1855 -135 c0 -5
-5 -3 -10 5 -5 8 -10 20 -10 25 0 6 5 3 10 -5 5 -8 10 -19 10 -25z m-1145
-276 c-4 -5 -2 -9 4 -9 5 0 13 4 16 10 3 5 17 9 30 8 13 -1 21 -6 19 -10 -3
-4 -11 -5 -19 -1 -8 3 -15 0 -15 -6 0 -6 -6 -11 -14 -11 -8 0 -17 -11 -20 -24
-8 -33 -55 -49 -90 -31 -28 15 -50 0 -25 -16 12 -8 12 -11 -1 -19 -8 -5 -21
-8 -28 -5 -8 3 -10 0 -6 -7 5 -7 2 -9 -8 -5 -9 3 -21 0 -27 -6 -8 -8 -11 -8
-11 0 0 7 -12 8 -37 2 -23 -5 -42 -4 -47 1 -7 7 -6 10 2 10 18 0 191 85 232
113 33 23 57 27 45 6z m-300 -139 c-3 -5 -17 -10 -30 -10 -13 0 -25 -5 -27
-11 -4 -13 -105 -21 -112 -10 -5 8 21 13 72 15 17 0 32 4 32 8 0 4 12 9 28 11
15 2 31 5 35 6 5 0 5 -3 2 -9z m3768 -368 c-13 -2 -23 -8 -23 -14 0 -6 -6 -6
-15 2 -13 11 -14 10 -10 -2 10 -24 -18 -40 -41 -24 -21 16 -16 25 13 31 10 2
19 4 21 5 1 2 6 3 11 4 5 0 12 4 16 7 3 4 16 4 28 1 l22 -7 -22 -3z m663 -15
c10 -9 -79 -140 -118 -172 -25 -21 -40 -25 -93 -25 -84 0 -99 6 -76 29 10 10
26 21 36 24 27 11 14 17 -41 17 -79 0 -84 -1 -84 -10 0 -5 -6 -7 -13 -4 -7 2
-24 0 -38 -5 -13 -5 -18 -10 -11 -10 6 -1 12 -6 12 -13 0 -6 -10 -2 -23 10
-13 12 -33 22 -45 22 -15 0 -22 6 -22 18 0 10 -4 22 -10 28 -5 5 -7 19 -4 31
5 17 22 25 82 42 43 11 88 22 102 24 40 8 338 3 346 -6z m-786 -27 c-6 -11
-15 -18 -21 -14 -6 4 -6 11 2 20 17 21 31 17 19 -6z m400 -131 c0 -5 5 -7 12
-3 6 4 8 3 5 -4 -4 -5 -16 -8 -27 -5 -11 3 -17 9 -14 14 7 12 24 11 24 -2z
m-507 -70 c-5 -25 -1 -35 20 -53 29 -25 28 -60 -1 -83 -9 -7 -11 -13 -5 -13 7
0 15 5 19 11 4 8 9 8 17 0 8 -8 5 -15 -9 -27 -11 -9 -13 -14 -5 -12 22 6 39
39 24 45 -7 3 -13 12 -13 21 1 14 4 13 19 -5 10 -12 21 -20 23 -17 3 2 11 -3
18 -12 12 -13 11 -17 -1 -25 -23 -15 8 -29 39 -18 19 7 29 6 44 -8 16 -14 23
-15 38 -5 27 16 33 15 25 -5 -15 -39 -15 -55 1 -49 9 3 20 6 25 6 6 0 7 5 4
10 -3 6 1 10 9 10 9 0 16 4 16 10 0 5 8 6 18 3 15 -6 15 -5 4 10 -12 14 -8 20
29 47 24 17 49 28 55 26 9 -3 11 1 7 11 -4 10 -2 14 4 10 14 -9 43 2 43 16 0
7 -4 7 -12 -1 -7 -7 -16 -12 -20 -12 -16 0 -7 20 24 55 29 34 34 36 77 30 64
-8 121 -24 121 -34 0 -8 -193 -141 -205 -141 -3 0 -15 -8 -25 -18 -28 -26
-100 -63 -111 -56 -5 3 -9 0 -9 -5 0 -6 -6 -11 -14 -11 -8 0 -16 -4 -18 -9 -5
-13 -103 -60 -171 -81 -73 -23 -177 -37 -177 -24 0 14 13 30 35 42 18 11 18
11 -9 12 -27 0 -28 2 -23 37 4 20 20 55 36 78 28 39 28 41 8 41 -12 0 -25 -4
-28 -9 -3 -4 -12 -9 -20 -10 -8 -2 -15 -7 -17 -12 -2 -6 -18 -26 -35 -45 -18
-19 -51 -57 -73 -85 -65 -83 -63 -81 -139 -78 -40 1 -71 7 -76 14 -5 9 -11 10
-21 2 -13 -11 -118 -22 -118 -13 0 14 89 123 158 193 76 77 178 155 277 212
117 67 127 69 118 24z m294 -195 c-3 -3 -12 -4 -19 -1 -8 3 -5 6 6 6 11 1 17
-2 13 -5z m118 -134 c-3 -5 -16 -10 -28 -10 -18 0 -19 2 -7 10 20 13 43 13 35
0z m-85 -45 c-19 -14 -36 -25 -39 -25 -11 1 50 50 62 50 6 0 -4 -11 -23 -25z
m-80 -30 c0 -2 -13 -19 -29 -37 -15 -18 -31 -43 -35 -55 -6 -19 -2 -23 31 -32
50 -14 49 -14 72 10 12 13 24 18 32 13 15 -9 144 -8 159 1 6 3 10 21 10 39 0
26 5 35 23 40 39 10 53 6 25 -10 -18 -9 -31 -28 -38 -53 -12 -47 -50 -68 -94
-51 -39 15 -53 13 -77 -11 -37 -37 -72 -40 -130 -12 -53 27 -80 24 -87 -9 -3
-17 61 -61 115 -78 21 -7 51 -23 66 -36 20 -17 42 -24 73 -25 73 -2 89 -10 55
-28 -13 -8 -22 -8 -26 -1 -4 6 -23 10 -44 9 -20 -2 -42 0 -47 4 -13 8 -69 -29
-69 -45 0 -10 25 -13 97 -13 101 0 118 -7 46 -19 -59 -10 -66 -10 -120 -2 -45
8 -48 7 -91 -33 -53 -49 -70 -51 -87 -12 -12 30 -110 111 -135 111 -24 0 -45
12 -45 26 0 23 -27 16 -34 -8 -4 -16 0 -27 14 -38 74 -54 82 -75 40 -108 l-29
-22 10 32 c15 55 11 66 -30 88 -42 21 -44 26 -56 128 -4 28 -10 52 -15 52 -16
0 -39 -126 -29 -166 12 -55 11 -64 -6 -58 -8 4 -15 12 -15 20 0 7 -7 17 -17
22 -11 7 -14 15 -8 28 4 11 10 28 12 39 2 10 10 29 17 40 8 12 12 33 9 48 -10
49 54 108 114 107 17 -1 17 -1 1 -11 -22 -12 -23 -42 -3 -59 8 -7 15 -25 15
-41 0 -18 8 -34 20 -41 11 -7 32 -30 47 -50 25 -37 27 -38 84 -36 44 1 63 -3
79 -17 19 -17 22 -17 65 0 25 9 53 28 62 42 16 24 16 26 -6 44 -13 11 -32 19
-43 19 -11 0 -34 14 -51 30 -18 17 -42 41 -55 52 l-23 22 23 9 c54 20 73 59
41 83 -15 11 -16 13 -2 14 8 0 37 11 65 24 56 28 54 28 54 21z m750 -150 c-7
-9 -15 -13 -19 -10 -3 3 1 10 9 15 21 14 24 12 10 -5z m-260 -80 c0 -8 -7 -15
-16 -15 -14 0 -14 3 -4 15 7 8 14 15 16 15 2 0 4 -7 4 -15z m254 -60 c-4 -8
-8 -15 -10 -15 -2 0 -4 7 -4 15 0 8 4 15 10 15 5 0 7 -7 4 -15z m-104 -64 c0
-5 -21 -17 -47 -27 -54 -20 -83 -41 -83 -60 0 -7 -12 -19 -27 -26 -19 -9 -30
-23 -33 -43 -5 -29 -7 -30 -60 -30 -53 0 -57 -2 -100 -47 -31 -33 -53 -48 -71
-48 -20 0 -30 -8 -39 -30 -7 -16 -18 -30 -25 -30 -7 0 -18 -7 -25 -15 -18 -21
-53 -19 -84 6 l-27 21 -49 -21 c-27 -12 -55 -21 -62 -21 -22 0 -90 76 -86 96
2 14 11 9 41 -28 29 -36 43 -45 55 -39 10 4 32 15 51 25 33 16 35 16 72 -9 36
-25 38 -26 68 -11 17 9 38 30 46 46 13 25 21 30 54 30 35 0 42 4 76 55 21 30
40 55 41 55 1 0 15 -5 29 -10 38 -15 75 -3 75 24 0 13 11 33 25 46 14 13 25
19 25 14 0 -5 9 6 20 24 13 20 28 32 42 32 13 0 32 7 42 15 22 17 56 20 56 6z
m-1187 -45 c3 -7 1 -18 -4 -23 -6 -6 -15 -44 -20 -84 -6 -41 -27 -125 -47
-187 -36 -112 -37 -114 -17 -128 13 -10 34 -13 65 -9 70 8 32 -4 -57 -18 -110
-18 -118 -10 -84 97 11 34 29 97 41 141 11 44 37 113 57 153 34 69 55 88 66
58z m1287 0 c0 -8 -9 -17 -20 -21 -10 -3 -29 -26 -41 -51 -13 -24 -27 -44 -32
-44 -14 0 -36 -32 -37 -53 0 -10 -16 -27 -35 -38 -19 -11 -37 -29 -40 -38 -3
-10 -14 -26 -25 -36 -20 -18 -19 -16 1 34 15 35 32 57 51 67 15 8 28 23 28 33
0 15 133 161 147 161 2 0 3 -6 3 -14z m80 -11 c17 -18 25 -39 27 -72 3 -53
-26 -175 -58 -250 -11 -26 -25 -59 -30 -72 -7 -17 -13 -21 -20 -14 -8 8 -6 20
5 42 25 47 66 210 66 260 0 32 -7 53 -26 78 -39 52 -9 76 36 28z m270 -62 c0
-42 -9 -63 -28 -63 -8 0 -13 3 -10 6 4 3 2 18 -2 34 -6 22 -5 30 7 34 8 4 13
12 10 20 -3 8 -3 17 1 20 10 10 22 -17 22 -51z m-1514 11 c4 -23 14 -38 28
-44 19 -7 19 -9 4 -15 -29 -12 -51 2 -44 28 3 14 -1 33 -10 45 -13 20 -13 22
0 22 9 0 18 -13 22 -36z m4 -193 c0 -32 13 -50 57 -80 18 -12 34 -34 38 -50 3
-16 13 -35 21 -42 16 -13 19 -29 5 -29 -5 0 -23 23 -40 51 -18 27 -45 58 -60
67 -21 12 -31 26 -34 52 -3 19 -8 46 -13 60 -7 23 -6 24 9 11 9 -7 17 -26 17
-40z m-284 17 c-20 -64 -47 -201 -42 -213 3 -8 1 -15 -4 -15 -9 0 -14 14 -11
32 0 4 3 33 5 64 2 31 8 59 13 63 5 3 9 20 9 36 -1 25 7 37 31 44 1 1 1 -5 -1
-11z m1287 -75 c-3 -43 -12 -89 -19 -103 -12 -25 -12 -24 -24 22 -7 26 -18 52
-26 58 -10 9 -9 17 6 43 15 24 50 54 67 57 2 0 0 -35 -4 -77z m300 8 c5 -5 16
-7 25 -4 10 4 13 2 8 -5 -4 -7 -1 -12 9 -12 9 0 13 5 10 10 -3 6 -2 10 4 10 5
0 12 -4 15 -8 7 -12 -10 -35 -22 -28 -5 3 -15 -1 -22 -9 -15 -18 -41 -20 -37
-3 4 20 -29 20 -49 1 -17 -17 -18 -17 -10 2 5 11 11 30 13 42 5 22 36 24 56 4z
m-352 -208 c-5 -17 -7 -34 -4 -36 2 -3 -9 -14 -25 -25 -28 -21 -29 -21 -45 -2
-9 11 -23 17 -32 14 -8 -4 -15 -1 -15 7 0 7 3 9 7 6 12 -13 33 14 24 32 -5 9
-12 37 -16 64 -4 26 -12 47 -19 47 -6 1 9 19 33 41 l45 40 27 -78 c22 -61 26
-85 20 -110z m-981 107 c-8 -5 -19 -10 -25 -10 -5 0 -3 5 5 10 8 5 20 10 25
10 6 0 3 -5 -5 -10z m-930 -4 c0 -2 -7 -6 -15 -10 -8 -3 -15 -1 -15 4 0 6 7
10 15 10 8 0 15 -2 15 -4z m-120 -26 c0 -5 -12 -10 -27 -10 -22 0 -25 2 -13
10 20 13 40 13 40 0z m-10 -24 c0 -3 -4 -8 -10 -11 -5 -3 -10 -1 -10 4 0 6 5
11 10 11 6 0 10 -2 10 -4z m880 -20 c0 -2 -9 -6 -20 -9 -11 -3 -18 -1 -14 4 5
9 34 13 34 5z m390 -16 l25 -1 -23 -10 c-13 -5 -20 -13 -17 -19 3 -5 1 -10 -5
-10 -6 0 -8 -4 -5 -10 3 -5 1 -11 -4 -11 -6 -1 -17 -2 -23 -3 -7 -1 -12 -13
-11 -27 1 -24 -1 -26 -43 -25 -24 1 -44 2 -44 4 0 5 33 55 59 90 18 25 30 32
45 28 12 -3 32 -6 46 -6z m473 -5 c4 -8 1 -17 -5 -21 -7 -4 -8 -3 -4 4 4 7 2
12 -3 12 -6 0 -11 5 -11 10 0 15 17 12 23 -5z m-913 -15 c-7 -4 -8 -10 -4 -12
5 -3 3 -3 -3 -2 -7 2 -13 -1 -13 -6 0 -6 -5 -10 -12 -10 -6 0 -8 3 -5 7 4 3 1
13 -6 22 -11 14 -10 14 6 2 15 -12 21 -9 18 11 0 4 6 5 15 1 11 -4 12 -8 4
-13z m1338 -16 c-10 -10 -28 6 -28 24 0 15 1 15 17 -1 9 -9 14 -19 11 -23z
m-1293 -3 c-6 -5 -25 10 -25 20 0 5 6 4 14 -3 8 -7 12 -15 11 -17z m452 13
c-3 -3 -12 -4 -19 -1 -8 3 -5 6 6 6 11 1 17 -2 13 -5z m283 -14 c0 -5 -4 -10
-10 -10 -5 0 -10 5 -10 10 0 6 5 10 10 10 6 0 10 -4 10 -10z m-700 -10 c0 -5
-2 -10 -4 -10 -3 0 -8 5 -11 10 -3 6 -1 10 4 10 6 0 11 -4 11 -10z m215 0 c-3
-5 -12 -10 -18 -10 -7 0 -6 4 3 10 19 12 23 12 15 0z m-389 -8 c-3 -5 24 -8
60 -8 35 0 64 4 64 9 0 5 7 4 15 -3 8 -7 28 -10 44 -8 17 2 27 0 24 -4 -3 -5
12 -6 34 -3 29 5 35 4 23 -5 -11 -8 -6 -9 25 -4 22 4 43 11 46 16 3 5 9 -1 12
-13 4 -13 5 -24 4 -25 -3 -3 -438 24 -459 29 -41 8 -24 14 31 11 33 -2 63 1
66 6 3 6 8 10 11 10 3 0 3 -4 0 -8z m-1096 -27 c0 -3 -9 -5 -20 -5 -11 0 -20
7 -20 15 0 13 4 14 20 5 11 -6 20 -13 20 -15z m2160 15 c0 -5 -2 -10 -4 -10
-3 0 -8 5 -11 10 -3 6 -1 10 4 10 6 0 11 -4 11 -10z m690 -10 c8 -16 6 -26
-11 -50 -16 -20 -23 -45 -23 -78 l-1 -49 -34 11 c-37 11 -51 37 -51 97 0 29 7
47 25 64 30 31 80 34 95 5z m-595 1 c-9 -8 -36 -10 -30 -2 2 4 11 8 20 8 8 0
13 -3 10 -6z m-1875 -11 c0 -5 -4 -10 -9 -10 -6 0 -13 5 -16 10 -3 6 1 10 9
10 9 0 16 -4 16 -10z m2150 -31 c0 -4 -23 -9 -50 -11 -28 -1 -50 -2 -50 -1 0
1 4 13 10 27 9 25 9 25 50 9 22 -9 40 -19 40 -24z m-2017 24 c-7 -2 -19 -2
-25 0 -7 3 -2 5 12 5 14 0 19 -2 13 -5z m466 -22 c19 -26 19 -29 4 -27 -10 2
-18 8 -18 14 0 6 -3 14 -7 18 -9 8 -11 24 -4 24 3 0 14 -13 25 -29z m1284 -24
c-5 -9 -17 -11 -33 -7 l-25 6 30 29 c29 29 30 30 33 8 2 -12 0 -29 -5 -36z
m34 31 c-3 -8 -6 -5 -6 6 -1 11 2 17 5 13 3 -3 4 -12 1 -19z m406 -35 c-5 -44
-9 -52 -30 -58 -15 -3 -21 -10 -16 -18 4 -7 -2 -5 -12 3 -10 8 -16 10 -12 4 4
-6 -5 -24 -18 -38 -28 -30 -30 -48 -10 -91 13 -30 13 -30 15 -5 1 23 2 23 10
5 5 -11 9 -15 9 -8 1 7 8 10 17 6 8 -3 26 0 40 7 13 8 27 10 31 5 5 -4 2 -10
-4 -12 -7 -3 -13 -9 -13 -14 0 -4 7 -6 15 -3 8 4 15 12 15 19 0 39 55 20 85
-28 22 -37 27 -66 13 -87 -6 -11 -7 -8 -2 10 5 20 4 23 -6 13 -7 -6 -10 -19
-6 -28 5 -14 9 -15 21 -5 8 7 15 20 16 29 0 9 3 11 5 4 3 -7 1 -21 -5 -31 -8
-14 -6 -24 5 -38 9 -11 13 -13 9 -6 -4 7 0 12 10 12 9 0 14 -4 11 -9 -3 -5 3
-11 15 -14 17 -5 18 -3 8 11 -12 15 -11 15 3 2 23 -22 34 -62 14 -54 -9 3 -19
-3 -26 -18 -10 -21 -10 -21 3 -5 9 10 18 14 21 9 9 -15 -36 -31 -79 -28 -22 1
-45 -1 -52 -6 -7 -5 -14 -5 -18 1 -4 7 -14 6 -29 -4 -22 -15 -22 -14 -18 15 3
21 -5 46 -28 86 -17 31 -26 53 -20 49 6 -3 10 -3 9 2 -4 20 2 23 17 8 9 -9 19
-13 22 -10 4 3 1 10 -7 14 -10 6 -9 10 4 14 9 4 13 3 10 -2 -3 -5 -1 -12 5
-16 15 -9 35 16 37 45 l2 25 -15 -25 c-9 -14 -13 -17 -10 -8 3 9 -2 19 -11 22
-9 4 -17 -1 -20 -14 -3 -11 -14 -20 -24 -20 -11 0 -19 -4 -19 -10 0 -5 -5 -10
-11 -10 -6 0 -9 7 -5 15 3 9 0 15 -9 15 -8 0 -15 5 -15 12 0 6 -3 8 -6 5 -4
-4 -1 -15 7 -24 7 -10 1 -7 -15 7 -54 47 -73 131 -37 162 15 13 19 26 16 58
-5 47 -11 60 -29 60 -7 0 -13 7 -13 15 0 9 14 16 41 20 73 9 91 11 93 10 1 -1
0 -24 -4 -52z m-1493 32 c74 -7 164 -17 198 -21 l64 -7 -32 -14 c-40 -16 -246
-18 -336 -2 -43 7 -69 18 -85 35 l-22 24 39 0 c21 0 100 -7 174 -15z m395 -3
c-3 -3 -11 0 -18 7 -9 10 -8 11 6 5 10 -3 15 -9 12 -12z m-1048 2 c-3 -3 -12
-4 -19 -1 -8 3 -5 6 6 6 11 1 17 -2 13 -5z m1083 2 c0 -3 -4 -8 -10 -11 -5 -3
-10 -1 -10 4 0 6 5 11 10 11 6 0 10 -2 10 -4z m-700 -31 c0 -2 -5 -7 -12 -11
-7 -5 -8 -3 -3 6 6 9 4 12 -7 8 -8 -4 -15 0 -15 7 0 10 5 11 19 4 10 -5 18
-12 18 -14z m1958 13 c15 -15 16 -32 2 -23 -6 3 -10 -4 -9 -17 0 -13 3 -17 6
-10 2 6 13 12 24 12 25 0 25 -28 -2 -85 -23 -48 -32 -53 -54 -31 -12 12 -12
15 0 19 7 3 16 1 19 -6 3 -7 2 2 -1 18 -6 27 -5 29 10 16 15 -12 18 -10 26 10
10 29 3 55 -12 40 -6 -6 -17 -7 -26 -2 -13 7 -16 3 -18 -22 -1 -17 -7 -35 -13
-41 -17 -17 -12 62 6 100 18 37 24 40 42 22z m-385 -29 c-8 -8 -19 -8 -40 -1
-28 10 -28 10 12 11 28 1 36 -2 28 -10z m-35 -51 c-4 -28 -16 -48 -29 -48 -6
0 -6 7 1 19 5 11 7 27 4 35 -4 11 -1 16 10 16 12 0 16 -7 14 -22z m57 12 c5
-8 11 -8 20 0 10 8 14 4 17 -20 5 -36 -4 -46 -25 -25 -12 11 -17 12 -20 2 -3
-7 -6 -6 -6 5 -1 9 -4 23 -7 32 -7 18 11 22 21 6z m-1085 -43 c0 -7 -5 -18
-12 -25 -13 -13 -20 -68 -18 -152 0 -30 -4 -66 -10 -81 -13 -30 -50 -47 -50
-23 0 12 -4 12 -20 4 -18 -10 -20 -8 -20 17 1 50 35 169 70 246 14 28 60 39
60 14z m430 -47 c0 -11 -4 -20 -10 -20 -5 0 -10 6 -10 14 0 8 -6 17 -12 19 -7
3 -3 6 10 6 16 1 22 -5 22 -19z m204 1 c3 -5 -1 -11 -9 -15 -8 -3 -17 -1 -20
4 -4 6 -11 10 -16 10 -6 0 -7 -5 -4 -10 4 -6 4 -19 0 -28 -6 -15 -8 -15 -15 3
-16 37 -11 45 24 45 19 0 37 -4 40 -9z m96 -26 c0 -38 -14 -47 -23 -15 -3 11
-10 20 -16 20 -14 0 -14 -17 -1 -25 16 -10 1 -25 -18 -18 -11 3 -9 -1 6 -11
12 -10 19 -22 16 -28 -4 -7 -10 -4 -16 6 -5 9 -13 14 -17 12 -12 -8 -9 28 3
36 8 6 8 8 0 8 -6 0 -11 11 -11 25 0 22 4 25 38 25 38 0 39 -1 39 -35z m370
-17 c0 -49 37 -115 107 -188 34 -37 63 -72 63 -77 0 -11 -87 -26 -101 -17 -5
3 -9 1 -9 -5 0 -17 -42 -25 -51 -10 -12 19 -11 42 1 34 6 -4 8 -11 5 -16 -3
-5 1 -6 9 -3 20 8 28 32 13 41 -7 5 -32 39 -57 77 -31 48 -44 80 -46 110 -2
23 -4 48 -6 56 -2 9 6 15 20 16 12 1 25 4 29 8 14 14 23 4 23 -26z m-463 -14
c-3 -3 -12 -4 -19 -1 -8 3 -5 6 6 6 11 1 17 -2 13 -5z m113 -68 c4 -20 6 -36
5 -36 -7 0 -35 64 -35 79 0 26 21 -3 30 -43z m-114 -3 c-10 -10 -19 5 -10 18
6 11 8 11 12 0 2 -7 1 -15 -2 -18z m129 -52 c3 -5 2 -12 -3 -15 -5 -3 -9 1 -9
9 0 17 3 19 12 6z m675 5 c0 -2 -8 -10 -17 -17 -16 -13 -17 -12 -4 4 13 16 21
21 21 13z m-3393 -62 c11 -31 -18 -46 -79 -42 -32 2 -58 1 -58 -4 0 -4 -4 -8
-10 -8 -5 0 -10 7 -10 15 0 9 9 15 23 15 12 0 31 7 41 15 19 15 19 15 1 15
-26 0 -7 17 25 22 30 5 59 -8 67 -28z m2550 -26 c-3 -8 -6 -5 -6 6 -1 11 2 17
5 13 3 -3 4 -12 1 -19z m223 -5 c0 -5 14 -16 32 -26 32 -18 32 -18 49 4 13 17
21 20 31 13 7 -6 20 -14 29 -17 13 -4 16 -1 12 14 -4 14 0 19 15 19 22 0 45
-30 55 -72 9 -36 -11 -41 -113 -32 -54 4 -84 12 -93 23 -19 22 -38 81 -26 81
5 0 9 -3 9 -7z m-207 -18 c-3 -9 -8 -14 -10 -11 -3 3 -2 9 2 15 9 16 15 13 8
-4z m-30 -11 c-7 -3 -9 -12 -6 -20 3 -8 0 -14 -6 -14 -6 0 -11 9 -11 20 0 13
6 20 18 19 9 0 12 -3 5 -5z m52 -33 c-2 -4 2 -8 10 -8 8 0 12 4 9 9 -9 15 29
8 47 -8 16 -14 18 -14 24 6 4 12 11 20 17 18 14 -5 43 -56 36 -63 -3 -4 -42 1
-85 11 -61 14 -79 22 -80 35 -1 12 3 16 13 12 7 -3 12 -8 9 -12z m722 1 c18
15 29 2 14 -16 -7 -8 -10 -19 -7 -25 4 -5 -3 -7 -16 -3 -12 3 -17 7 -10 10 7
2 10 8 7 12 -3 5 -12 7 -20 3 -8 -3 -15 -1 -15 4 0 16 13 24 24 13 6 -6 14 -6
23 2z m-1587 -98 c0 -8 5 -14 12 -14 6 0 9 -2 6 -5 -3 -3 -16 -2 -28 3 -16 6
-19 11 -12 16 7 4 9 12 6 18 -4 7 -2 8 4 4 7 -4 12 -14 12 -22z m80 1 c-7 -9
-15 -13 -17 -11 -7 7 7 26 19 26 6 0 6 -6 -2 -15z m1591 2 c-1 -12 -15 -9 -19
4 -3 6 1 10 8 8 6 -3 11 -8 11 -12z m44 -15 c-3 -3 -11 0 -18 7 -9 10 -8 11 6
5 10 -3 15 -9 12 -12z m-1785 -7 c7 -9 8 -15 2 -15 -5 0 -12 7 -16 15 -3 8 -4
15 -2 15 2 0 9 -7 16 -15z m273 -270 c-26 -181 -23 -254 15 -345 18 -41 32
-77 32 -80 0 -3 -21 33 -46 79 -56 101 -66 169 -40 271 27 102 30 176 12 262
-23 110 -19 115 15 18 l30 -85 -18 -120z m1507 247 c0 -8 -1 -13 -3 -11 -1 2
-9 12 -16 22 -12 15 -12 17 3 11 9 -3 16 -13 16 -22z m-1880 -15 c0 -7 -6 -22
-14 -32 -13 -18 -14 -18 -21 4 -5 16 -3 26 6 32 20 12 29 11 29 -4z m234 -3
c5 -13 1 -15 -19 -10 -18 5 -25 2 -25 -9 0 -8 -5 -15 -10 -15 -14 0 5 36 22
43 22 9 26 8 32 -9z m-147 -29 c13 -29 11 -30 -18 -12 -17 10 -23 10 -26 0 -5
-15 -23 -17 -23 -4 0 14 29 41 43 41 7 0 17 -11 24 -25z m57 -1 c4 -10 1 -14
-6 -12 -15 5 -23 28 -10 28 5 0 13 -7 16 -16z m156 -8 c0 -8 -11 -16 -25 -18
-29 -6 -33 9 -8 28 20 14 33 10 33 -10z m1353 -95 c61 -65 84 -108 128 -239
48 -146 57 -166 111 -245 22 -33 36 -62 33 -65 -12 -12 -73 68 -91 117 -9 25
-27 70 -40 100 -13 29 -24 58 -24 65 0 21 -62 171 -82 199 -29 41 -77 89 -120
121 -21 15 -38 32 -38 37 0 14 79 -44 123 -90z m-1455 71 c16 -15 15 -17 -14
-26 -15 -5 -24 -2 -28 10 -12 32 14 43 42 16z m-272 -8 c-3 -9 -6 -20 -6 -25
0 -5 -7 -9 -15 -9 -18 0 -18 5 -5 31 13 23 35 26 26 3z m83 -7 c12 -15 12 -17
-3 -11 -9 3 -16 1 -16 -5 0 -6 -9 -11 -20 -11 -26 0 -25 14 3 33 12 8 22 14
22 13 1 0 7 -9 14 -19z m126 -6 c3 -5 1 -12 -4 -16 -6 -3 -7 -13 -4 -23 6 -15
5 -15 -10 -3 -9 7 -17 10 -18 5 0 -5 -4 0 -8 11 -6 14 -4 22 8 27 23 9 29 9
36 -1z m407 -135 c-5 -159 6 -213 54 -277 28 -37 114 -202 114 -219 0 -27 -19
-1 -60 83 -24 51 -58 112 -76 137 -53 74 -68 136 -60 248 14 215 33 233 28 28z
m824 18 c56 -72 104 -238 104 -355 0 -55 32 -130 70 -164 30 -27 101 -175 83
-175 -7 0 -13 7 -13 16 0 19 -68 120 -126 185 -46 52 -48 59 -44 147 3 82 -27
194 -92 336 -61 135 -75 176 -31 91 14 -27 36 -64 49 -81z m599 116 c-3 -5 -1
-10 4 -10 6 0 11 -5 11 -11 0 -8 -5 -8 -15 1 -13 11 -12 30 1 30 3 0 2 -4 -1
-10z m-1687 -17 c-10 -2 -18 -9 -18 -14 0 -6 -5 -7 -11 -3 -14 8 8 24 31 23
11 -1 10 -3 -2 -6z m-60 -42 c3 -19 1 -21 -10 -12 -7 6 -21 17 -31 24 -17 12
-16 13 10 12 22 0 29 -5 31 -24z m-288 -9 c0 -14 -4 -21 -10 -17 -6 4 -17 1
-25 -5 -12 -10 -15 -9 -15 3 0 8 -5 17 -12 19 -22 8 3 27 32 25 24 -2 30 -7
30 -25z m112 -6 c-17 -22 -21 -24 -32 -11 -9 11 -10 15 -1 15 7 0 19 7 28 15
24 24 28 9 5 -19z m-62 10 c0 -11 -19 -15 -25 -6 -3 5 1 10 9 10 9 0 16 -2 16
-4z m1049 -103 c0 -104 12 -170 50 -267 12 -29 18 -143 8 -152 -3 -3 -10 28
-16 68 -12 73 -19 108 -47 223 -22 92 -21 235 1 235 3 0 4 -48 4 -107z m-889
88 c0 -4 -11 -6 -25 -3 -14 2 -25 6 -25 8 0 2 11 4 25 4 14 0 25 -4 25 -9z
m178 -20 c3 -8 -3 -9 -21 -2 -16 6 -28 6 -36 -2 -6 -6 -14 -8 -18 -4 -3 4 2
13 12 21 20 15 56 8 63 -13z m-348 0 c0 -6 -4 -13 -10 -16 -5 -3 -10 1 -10 9
0 9 5 16 10 16 6 0 10 -4 10 -9z m-53 -17 c-3 -3 -12 -4 -19 -1 -8 3 -5 6 6 6
11 1 17 -2 13 -5z m203 -14 c10 -19 9 -20 -16 -14 -20 5 -31 2 -40 -11 -13
-17 -14 -17 -20 -1 -8 21 3 33 36 39 14 2 26 5 27 6 1 0 7 -8 13 -19z m-285 0
c4 -6 2 -17 -4 -24 -6 -7 -8 -16 -4 -19 3 -4 2 -7 -4 -7 -6 0 -13 9 -16 20 -3
11 0 20 6 20 7 0 5 5 -3 10 -13 8 -13 10 2 10 9 0 20 -5 23 -10z m411 -22 c4
-5 -4 -5 -16 2 -12 7 -33 10 -46 7 -19 -3 -22 -1 -13 9 11 14 63 1 75 -18z
m54 22 c0 -5 -5 -10 -11 -10 -5 0 -7 5 -4 10 3 6 8 10 11 10 2 0 4 -4 4 -10z
m-370 -34 c0 -19 -32 -30 -42 -14 -13 21 -9 28 17 28 15 0 25 -6 25 -14z m288
-8 c23 -23 13 -36 -27 -35 l-38 2 21 21 c25 26 29 27 44 12z m-202 -8 c9 0 14
-11 13 -32 0 -33 0 -33 -16 -10 -20 28 -41 28 -52 0 l-8 -23 -8 24 c-8 27 18
56 43 46 8 -3 20 -5 28 -5z m-141 -37 c-11 -3 -26 -12 -32 -21 -15 -18 -28
-10 -20 13 4 10 18 15 39 14 21 -1 26 -3 13 -6z m45 -49 c0 -24 -17 -15 -22
11 -4 20 -3 23 8 14 8 -6 14 -18 14 -25z m185 -4 c7 -20 5 -23 -6 -14 -8 7
-22 8 -34 3 -50 -20 -56 9 -6 36 29 15 35 12 46 -25z m702 8 c-3 -8 -6 -5 -6
6 -1 11 2 17 5 13 3 -3 4 -12 1 -19z m-657 -9 c0 -6 -4 -7 -10 -4 -5 3 -10 11
-10 16 0 6 5 7 10 4 6 -3 10 -11 10 -16z m-350 -37 c0 -13 -2 -13 -18 1 -12
11 -22 13 -35 6 -20 -11 -21 -6 -7 22 10 18 12 18 35 3 14 -9 25 -23 25 -32z
m473 25 c9 -3 17 -11 17 -16 0 -7 -8 -7 -23 -2 -14 5 -30 5 -40 0 -22 -13 -22
-5 0 21 9 11 20 16 23 12 3 -5 13 -11 23 -15z m1035 -47 c33 -59 36 -72 42
-179 7 -119 20 -163 70 -238 12 -18 17 -33 11 -33 -15 0 -71 86 -93 142 -13
34 -18 75 -18 142 0 89 -2 98 -35 160 -38 72 -41 80 -24 74 7 -2 28 -33 47
-68z m-172 -44 c27 -32 34 -48 33 -80 l-1 -41 -18 58 c-20 65 -37 90 -55 83
-7 -2 -17 11 -24 33 -16 55 -14 60 10 21 12 -19 37 -53 55 -74z m-327 5 c1
-64 -5 -47 -12 29 -3 39 -2 55 3 40 4 -14 8 -45 9 -69z m-805 53 c4 -15 5 -29
1 -32 -3 -3 -5 0 -5 6 0 7 -10 12 -22 12 -30 0 -52 15 -44 29 4 6 20 11 36 11
22 0 29 -6 34 -26z m141 6 c3 -5 1 -10 -4 -10 -6 0 -11 5 -11 10 0 6 2 10 4
10 3 0 8 -4 11 -10z m1700 1 c3 -5 1 -12 -5 -16 -5 -3 -10 1 -10 9 0 18 6 21
15 7z m-1960 -32 c12 -19 -3 -22 -27 -5 l-22 16 21 0 c12 0 25 -5 28 -11z
m-61 -14 c-4 -8 -13 -15 -21 -15 -13 0 -13 3 -3 15 7 8 16 15 21 15 5 0 6 -7
3 -15z m304 4 c-2 -3 3 -13 11 -22 12 -15 10 -16 -18 -11 -19 4 -37 2 -46 -6
-8 -7 -15 -9 -15 -4 0 12 52 55 63 51 4 -1 7 -5 5 -8z m-88 -14 c0 -9 -6 -12
-15 -9 -8 4 -12 10 -9 15 8 14 24 10 24 -6z m-113 -1 c-3 -3 -12 -4 -19 -1 -8
3 -5 6 6 6 11 1 17 -2 13 -5z m366 -10 c3 -3 -2 -13 -11 -23 -15 -15 -18 -15
-29 -2 -6 9 -9 19 -7 23 6 9 38 11 47 2z m-375 -23 c17 -10 -1 -25 -40 -35
-21 -5 -28 -3 -28 8 0 26 43 43 68 27z m-138 -27 c6 -14 7 -31 3 -37 -4 -7 -9
-2 -13 13 -4 18 -13 25 -28 24 -12 0 -22 1 -22 3 0 3 36 20 48 22 1 1 7 -11
12 -25z m408 14 c-3 -7 -13 -15 -23 -16 -15 -4 -16 -2 -4 12 17 19 32 21 27 4z
m-231 -20 c-3 -8 -6 -5 -6 6 -1 11 2 17 5 13 3 -3 4 -12 1 -19z m283 18 c0
-11 -19 -15 -25 -6 -3 5 1 10 9 10 9 0 16 -2 16 -4z m-10 -50 c0 -8 6 -16 13
-19 6 -2 10 -7 7 -10 -3 -3 -19 5 -35 18 -29 23 -29 24 -7 25 12 0 22 -6 22
-14z m-535 -6 c3 -5 1 -10 -4 -10 -6 0 -11 5 -11 10 0 6 2 10 4 10 3 0 8 -4
11 -10z m628 -4 c4 -10 1 -13 -8 -9 -8 3 -12 9 -9 14 7 12 11 11 17 -5z m-400
-20 c6 -15 -1 -26 -15 -26 -4 0 -8 9 -8 20 0 23 15 27 23 6z m-57 -11 c-8 -8
-23 -14 -33 -13 -38 3 -52 -2 -47 -17 4 -8 1 -15 -5 -15 -14 0 -14 15 -1 39 7
14 22 19 55 19 40 1 44 0 31 -13z m-161 -15 c-10 -11 -20 -18 -23 -16 -5 6 21
35 32 36 5 0 1 -9 -9 -20z m325 10 c0 -5 -10 -10 -22 -10 -19 0 -20 2 -8 10
19 13 30 13 30 0z m851 -65 c22 -48 28 -188 7 -179 -9 3 -13 28 -14 72 -1 42
-9 86 -23 120 -11 29 -21 56 -21 60 1 13 32 -32 51 -73z m-991 40 c0 -8 -4
-15 -10 -15 -5 0 -10 7 -10 15 0 8 5 15 10 15 6 0 10 -7 10 -15z m233 9 c14
-14 -23 -34 -49 -28 -17 4 -29 2 -36 -7 -7 -11 -8 -9 -6 6 2 13 14 22 33 26
43 9 51 10 58 3z m-130 -18 c8 -20 -4 -28 -19 -15 -8 6 -21 9 -29 5 -8 -3 -15
-1 -15 3 0 21 55 27 63 7z m240 -6 c-3 -12 -8 -19 -11 -16 -5 6 5 36 12 36 2
0 2 -9 -1 -20z m78 10 c5 0 9 -10 9 -22 -1 -21 -1 -22 -11 -5 -8 14 -18 17
-37 12 -23 -6 -24 -4 -12 10 7 9 20 13 27 10 8 -3 19 -5 24 -5z m-526 -49 c3
-8 -1 -21 -9 -29 -13 -14 -14 -13 -9 6 4 17 1 22 -14 22 -26 0 -35 10 -22 26
12 15 44 0 54 -25z m-97 -16 c-1 -19 -6 -31 -10 -29 -5 3 -6 14 -3 24 3 10 1
21 -5 25 -6 3 -8 11 -4 16 11 18 24 -3 22 -36z m216 -4 c-9 -10 -26 18 -18 30
5 9 9 8 14 -7 4 -10 6 -21 4 -23z m126 3 c0 -15 -23 -44 -34 -44 -11 0 -6 36
6 48 17 17 28 15 28 -4z m400 -45 c0 -4 -8 -10 -17 -13 -10 -4 -14 -4 -10 0 8
8 -12 36 -22 30 -3 -2 -6 6 -6 19 l0 23 27 -26 c15 -15 28 -30 28 -33z m-561
9 c1 -4 -10 -3 -23 2 -13 5 -27 6 -30 3 -3 -4 -6 -1 -6 5 0 7 9 12 20 12 11 0
20 6 21 13 0 11 17 -19 18 -35z m361 27 c7 -9 10 -18 6 -22 -3 -3 -6 -1 -6 5
0 7 -9 12 -20 12 -11 0 -20 5 -20 10 0 15 26 12 40 -5z m245 -15 c3 -6 -3 -10
-14 -10 -12 0 -21 2 -21 4 0 2 -3 12 -7 21 -5 15 -3 16 15 6 11 -6 24 -16 27
-21z m654 -140 c8 -23 7 -30 -3 -30 -16 0 -36 87 -35 153 l1 52 13 -73 c7 -40
18 -86 24 -102z m79 107 c12 -26 17 -45 13 -42 -11 6 -41 69 -41 86 0 18 5 11
28 -44z m-1098 33 c0 -5 -5 -10 -11 -10 -5 0 -7 5 -4 10 3 6 8 10 11 10 2 0 4
-4 4 -10z m184 -5 c-4 -8 -8 -15 -10 -15 -2 0 -4 7 -4 15 0 8 4 15 10 15 5 0
7 -7 4 -15z m262 -8 c-19 -6 -35 -6 -49 2 -21 11 -20 11 5 6 15 -3 29 -1 33 5
3 5 13 6 22 3 14 -5 11 -9 -11 -16z m-588 -1 c2 -3 2 -12 0 -22 -3 -16 -5 -16
-18 -3 -8 9 -24 21 -35 28 -18 11 -16 12 14 7 19 -4 36 -8 39 -10z m1997 4 c3
-5 1 -10 -4 -10 -6 0 -11 5 -11 10 0 6 2 10 4 10 3 0 8 -4 11 -10z m-2185 -18
c0 -15 -6 -18 -32 -14 -29 4 -30 6 -13 18 26 19 45 17 45 -4z m287 -33 c20 -7
23 -13 15 -21 -9 -9 -15 -9 -24 0 -7 7 -22 12 -35 12 -28 0 -29 7 -5 33 15 17
17 17 20 3 2 -10 15 -22 29 -27z m73 31 c0 -5 -2 -10 -4 -10 -3 0 -8 5 -11 10
-3 6 -1 10 4 10 6 0 11 -4 11 -10z m894 -42 c4 -24 3 -38 -4 -38 -5 0 -10 19
-10 42 0 49 5 47 14 -4z m-384 2 c0 -15 -5 -12 -26 11 -19 22 -19 22 4 10 12
-6 22 -16 22 -21z m-749 -20 c5 0 9 -7 9 -16 0 -13 -4 -13 -30 3 -23 13 -32
15 -42 5 -14 -14 -28 -16 -28 -3 0 4 17 15 38 23 30 11 38 12 40 1 2 -7 8 -13
13 -13z m1874 -64 c26 -24 35 -26 74 -21 24 4 51 9 60 11 9 3 5 -1 -9 -9 -14
-8 -46 -18 -71 -22 -45 -7 -45 -6 -84 42 -71 88 -68 88 30 -1z m167 52 c-7 -7
-12 -8 -12 -2 0 14 12 26 19 19 2 -3 -1 -11 -7 -17z m-1732 2 c0 -5 -10 -10
-22 -9 -22 0 -22 1 -3 9 11 5 21 9 23 9 1 1 2 -3 2 -9z m1087 -68 l34 -54 59
6 c32 4 71 4 87 0 26 -7 24 -8 -27 -20 -114 -27 -130 -20 -191 91 -41 73 -13
57 38 -23z m-1334 49 c-3 -12 -11 -17 -19 -14 -11 4 -12 9 -3 19 16 20 28 17
22 -5z m1060 -25 c4 -10 1 -13 -9 -9 -15 6 -19 23 -5 23 5 0 11 -7 14 -14z
m-918 -17 c4 -6 5 -13 2 -16 -8 -7 -47 7 -47 18 0 13 37 11 45 -2z m189 -13
c-21 -15 -30 -14 -19 3 3 6 14 11 23 11 13 0 13 -2 -4 -14z m-374 -16 c0 -5
-11 -10 -25 -10 -19 0 -25 -5 -26 -22 -1 -18 -2 -19 -6 -5 -3 10 -2 25 1 33 6
16 56 20 56 4z m1460 5 c0 -2 -9 -9 -20 -15 -12 -6 -20 -7 -20 -1 0 5 8 12 18
14 9 3 18 5 20 6 1 0 2 -1 2 -4z m-1416 -21 c5 -14 4 -15 -9 -4 -17 14 -19 20
-6 20 5 0 12 -7 15 -16z m1696 -4 c0 -4 -8 -6 -19 -3 -10 3 -32 -2 -48 -10
-17 -9 -35 -12 -42 -7 -9 5 -3 11 20 18 66 21 89 21 89 2z m-1930 -5 c0 -8 -4
-15 -10 -15 -5 0 -7 7 -4 15 4 8 8 15 10 15 2 0 4 -7 4 -15z m355 5 c5 -9 -15
-15 -38 -11 -4 1 -10 -6 -13 -14 -8 -19 -24 -20 -24 -1 0 8 12 19 28 24 36 14
40 14 47 2z m355 -10 c12 -22 4 -25 -37 -14 -13 4 -20 11 -16 20 8 21 41 17
53 -6z m-660 -26 c0 -8 -19 -13 -24 -6 -3 5 1 9 9 9 8 0 15 -2 15 -3z m716
-20 c-3 -7 0 -11 8 -8 7 3 20 -11 30 -33 10 -21 12 -33 5 -25 -7 6 -23 12 -36
12 -17 0 -23 6 -23 21 0 11 -4 29 -10 39 -8 15 -6 17 11 13 11 -3 18 -11 15
-19z m-294 4 c-5 -8 -6 -22 -1 -33 11 -28 11 -35 -1 -35 -5 0 -10 8 -10 18 0
10 -5 23 -11 29 -14 14 -3 33 18 33 11 0 13 -4 5 -12z m-334 -18 c17 -11 32
-25 32 -32 0 -6 -6 -4 -13 5 -14 21 -87 36 -87 18 0 -6 -4 -11 -9 -11 -7 0 -8
17 -2 38 3 9 52 -2 79 -18z m147 -10 c29 -31 30 -43 0 -14 -13 14 -21 15 -41
5 -22 -10 -24 -16 -21 -51 3 -28 0 -40 -9 -40 -9 0 -11 13 -9 45 4 52 11 65
31 65 8 0 14 5 14 10 0 15 4 13 35 -20z m390 21 c-21 -4 -35 -17 -48 -41 -18
-35 -18 -35 -12 -5 7 36 30 55 64 54 24 -1 24 -2 -4 -8z m-649 -78 c-3 -4 -6
-1 -6 6 0 7 -4 9 -10 6 -6 -4 -7 1 -3 11 6 15 7 15 15 -1 6 -9 7 -19 4 -22z
m54 11 c0 -8 -5 -12 -10 -9 -6 4 -8 11 -5 16 9 14 15 11 15 -7z m298 -23 c-7
-11 -16 -17 -20 -14 -10 5 10 33 23 33 5 0 4 -9 -3 -19z m212 1 c0 -5 -13 -7
-30 -4 -20 3 -30 0 -30 -9 0 -7 -3 -10 -6 -6 -3 3 -3 10 1 16 7 13 65 15 65 3z
m74 -34 c-3 -5 -12 -4 -20 3 -19 16 -18 18 6 12 11 -3 17 -9 14 -15z m73 4
c-10 -10 -17 -25 -18 -33 0 -11 -2 -11 -6 -1 -5 12 23 52 35 52 3 0 -2 -8 -11
-18z m-576 -19 c13 -15 12 -15 -8 -4 -24 12 -29 21 -14 21 5 0 15 -7 22 -17z
m219 -8 c0 -8 -4 -15 -10 -15 -5 0 -10 7 -10 15 0 8 5 15 10 15 6 0 10 -7 10
-15z m55 -4 c-3 -6 -11 -11 -17 -11 -6 0 -6 6 2 15 14 17 26 13 15 -4z m189 3
c9 -24 7 -28 -9 -14 -17 14 -20 30 -6 30 5 0 12 -7 15 -16z"/>
<path d="M2830 4201 c0 -5 -29 -39 -65 -76 -36 -38 -65 -73 -65 -79 0 -6 34
23 75 65 71 72 88 99 65 99 -5 0 -10 -4 -10 -9z"/>
<path d="M2540 3940 c-9 -6 -10 -10 -3 -10 6 0 15 5 18 10 8 12 4 12 -15 0z"/>
<path d="M3925 3071 c-3 -5 -2 -12 3 -15 5 -3 9 1 9 9 0 17 -3 19 -12 6z"/>
<path d="M4005 2930 c-3 -6 1 -7 9 -4 18 7 21 14 7 14 -6 0 -13 -4 -16 -10z"/>
<path d="M3985 2460 c-7 -11 8 -41 28 -59 12 -9 21 -9 41 0 33 15 34 39 2 39
-13 0 -29 7 -36 15 -14 17 -26 19 -35 5z"/>
<path d="M5030 2118 c-13 -8 -12 -9 2 -5 9 3 19 1 21 -6 2 -7 7 -9 11 -6 13
12 -19 28 -34 17z"/>
<path d="M3708 1843 c7 -3 16 -2 19 1 4 3 -2 6 -13 5 -11 0 -14 -3 -6 -6z"/>
<path d="M4956 1568 c3 -5 10 -6 15 -3 13 9 11 12 -6 12 -8 0 -12 -4 -9 -9z"/>
<path d="M5116 1521 c-10 -11 -16 -26 -13 -33 4 -10 6 -10 6 1 1 8 9 20 18 27
10 7 15 15 12 18 -3 3 -14 -3 -23 -13z"/>
<path d="M5173 1795 c-7 -8 -9 -16 -4 -19 5 -3 12 1 15 10 8 22 4 25 -11 9z"/>
<path d="M3468 5488 c7 -7 26 -17 44 -22 44 -15 93 -87 78 -116 -8 -15 -7 -27
5 -49 19 -38 19 -61 0 -97 -30 -59 -7 -104 54 -104 18 0 34 -6 37 -14 9 -23
35 -28 60 -11 20 13 27 13 44 3 27 -17 90 -145 90 -184 0 -23 7 -34 26 -45 27
-14 28 -29 8 -97 -5 -18 -2 -24 13 -28 12 -3 27 -22 35 -43 15 -38 41 -51 99
-51 11 0 32 -14 48 -32 l28 -31 35 21 c20 12 52 22 72 22 29 0 36 -4 36 -20 0
-11 4 -20 10 -20 18 0 70 -82 70 -110 0 -21 6 -29 23 -34 14 -3 28 -19 37 -41
8 -19 24 -44 36 -55 19 -19 25 -20 70 -9 27 7 61 18 76 25 24 13 28 12 45 -12
19 -25 20 -25 81 -14 47 8 67 8 84 -1 34 -17 67 -61 68 -89 1 -39 12 -48 59
-52 27 -2 47 -9 51 -18 4 -8 12 -25 18 -36 6 -12 8 -31 5 -43 -4 -17 5 -31 38
-60 41 -38 43 -41 40 -93 -1 -37 -7 -57 -20 -68 -13 -10 -20 -34 -24 -76 l-6
-61 67 -6 c56 -5 71 -3 94 14 15 10 31 19 37 19 5 0 21 14 36 31 20 24 29 29
38 20 15 -15 54 -14 74 2 9 6 31 27 49 45 18 17 37 32 43 32 5 0 13 5 16 10
15 24 -28 7 -63 -24 -20 -19 -46 -36 -57 -38 -22 -4 -17 -22 -101 372 -91 432
-126 601 -139 675 -7 39 -16 87 -20 107 -7 36 -6 37 21 34 29 -3 54 9 54 25 0
5 -10 9 -22 9 -12 0 -30 8 -41 18 -20 16 -20 16 -13 -3 6 -16 5 -18 -5 -7 -10
9 -10 15 -1 24 7 7 12 9 12 5 0 -4 13 -1 30 8 49 25 64 20 57 -20 -3 -19 -1
-37 4 -40 5 -4 9 -21 9 -38 0 -46 24 -130 38 -135 9 -3 12 31 12 135 l0 138
58 0 c31 1 76 4 100 9 39 7 42 6 42 -14 0 -20 -4 -22 -39 -18 -22 2 -37 0 -35
-4 8 -13 -11 -9 -25 5 -10 10 -11 9 -6 -5 5 -13 0 -21 -16 -27 -19 -8 -7 -10
49 -10 82 -1 76 5 90 -101 7 -61 9 -28 10 180 0 159 -3 249 -8 240 -8 -13 -10
-12 -10 3 0 9 5 17 10 17 16 0 11 42 -7 62 -16 18 -16 18 0 12 10 -3 17 -1 17
5 0 14 -217 14 -226 0 -3 -5 -12 -5 -23 0 -28 15 -1798 14 -1783 -1z m1922
-97 c-1 -13 -30 34 -30 48 0 9 7 3 15 -13 8 -15 15 -31 15 -35z m40 44 c7 -9
8 -15 2 -15 -5 0 -12 7 -16 15 -3 8 -4 15 -2 15 2 0 9 -7 16 -15z m-215 -34
c3 -5 2 -12 -3 -15 -5 -3 -9 1 -9 9 0 17 3 19 12 6z m-275 -13 c0 -5 6 -6 13
-1 21 13 35 12 41 -4 3 -8 1 -11 -4 -8 -6 3 -10 1 -10 -4 0 -6 -4 -11 -10 -11
-5 0 -6 8 -3 18 6 15 5 15 -10 3 -9 -7 -24 -11 -32 -7 -19 7 -19 23 0 23 8 0
15 -4 15 -9z m366 -36 c-8 -7 -25 8 -37 31 -11 21 -10 21 15 -2 14 -14 24 -26
22 -29z m38 29 c10 -11 13 -22 8 -25 -6 -3 -17 5 -26 19 -19 29 -7 33 18 6z
m116 -1 c0 -12 -16 -30 -42 -47 -24 -14 -66 -41 -93 -60 -58 -38 -85 -42 -85
-12 0 36 19 59 50 59 40 0 76 15 118 50 43 35 52 37 52 10z m-220 -34 c0 -5
-7 -3 -15 4 -8 7 -12 17 -9 22 7 10 24 -9 24 -26z m-1626 -11 c-4 -8 -8 -15
-10 -15 -2 0 -4 7 -4 15 0 8 4 15 10 15 5 0 7 -7 4 -15z m1231 -23 c-3 -3 -11
0 -18 7 -9 10 -8 11 6 5 10 -3 15 -9 12 -12z m194 -28 c22 -32 27 -45 16 -42
-18 3 -71 88 -56 88 5 0 23 -21 40 -46z m111 31 c9 -11 10 -19 3 -26 -6 -6
-13 -1 -21 16 -13 28 -2 34 18 10z m-46 -30 c9 -14 13 -25 8 -25 -5 0 -14 11
-20 25 -6 14 -10 25 -8 25 2 0 11 -11 20 -25z m369 -48 c6 -59 -1 -63 -133
-73 -80 -6 -90 -5 -90 10 0 10 8 16 23 16 21 0 62 24 146 85 19 14 38 22 42
18 3 -5 9 -30 12 -56z m-283 -3 c0 -13 -65 -47 -104 -54 -16 -3 -31 -11 -34
-17 -6 -19 50 -16 92 3 19 9 42 14 51 10 51 -19 -43 -60 -119 -52 -57 6 -64
11 -68 50 -3 28 -1 30 65 46 37 9 75 24 85 33 16 17 31 8 32 -19z m49 -68 c2
-50 -8 -23 -13 35 -4 39 -3 46 3 24 5 -16 9 -43 10 -59z m-394 36 c-2 -3 3
-10 12 -17 14 -11 15 -16 4 -43 -14 -35 -47 -40 -57 -9 -8 24 2 33 19 19 10
-9 14 -8 14 3 0 8 -4 15 -9 15 -5 0 -6 5 -3 10 3 6 0 10 -7 11 -9 0 -10 2 -1
5 7 3 9 13 6 22 -6 15 -5 15 10 3 10 -8 15 -16 12 -19z m135 -2 c0 -5 -2 -10
-4 -10 -3 0 -8 5 -11 10 -3 6 -1 10 4 10 6 0 11 -4 11 -10z m-1282 -76 c20 -4
45 -6 55 -5 17 2 17 2 0 -18 -21 -26 -39 -27 -52 -3 -6 11 -22 17 -47 17 -40
0 -62 21 -51 49 5 14 10 13 32 -8 14 -13 42 -27 63 -32z m1286 10 c3 -8 2 -12
-4 -9 -6 3 -10 10 -10 16 0 14 7 11 14 -7z m-1082 -34 c121 3 123 3 239 0 59
-1 112 -6 119 -10 8 -5 18 -22 24 -38 19 -51 67 -173 114 -287 24 -60 56 -137
69 -170 13 -33 43 -102 65 -153 22 -52 38 -95 36 -96 -1 -2 -21 -6 -44 -9 -34
-6 -44 -3 -62 16 -12 13 -27 37 -33 55 -6 18 -15 33 -20 33 -5 1 -15 2 -21 3
-7 0 -14 16 -16 35 -4 35 -10 46 -53 90 -14 14 -28 34 -32 44 -11 28 -127 15
-127 -15 0 -17 -21 -7 -47 22 -23 26 -33 30 -79 30 -54 0 -64 8 -64 52 0 12
-8 22 -21 25 -16 4 -19 11 -14 27 3 11 9 38 12 58 5 33 3 39 -21 49 -21 10
-26 19 -26 47 0 19 -6 40 -14 46 -7 6 -23 37 -36 69 -12 31 -26 57 -31 57 -4
0 -14 10 -20 23 -11 20 -11 21 4 9 11 -9 42 -13 99 -12z m692 -11 c151 -18
172 -21 199 -31 15 -6 27 -14 27 -19 0 -5 14 -6 30 -2 l30 6 1 -54 c2 -80 22
-182 37 -187 11 -3 13 19 11 116 -2 67 1 125 5 129 5 4 6 3 3 -4 -5 -7 0 -9
12 -6 13 3 24 -2 33 -16 15 -24 31 -27 47 -7 6 7 22 11 35 9 27 -6 34 -25 60
-183 16 -92 78 -404 101 -510 8 -36 35 -159 60 -275 25 -115 48 -217 51 -226
3 -13 -1 -15 -22 -11 -19 3 -32 -2 -51 -22 -42 -45 -102 -79 -118 -66 -8 7
-23 9 -33 5 -51 -15 -72 74 -27 113 22 19 25 30 25 85 0 62 -1 64 -40 93 -34
24 -40 33 -36 56 3 15 -1 40 -9 55 -8 15 -15 34 -15 40 0 14 -24 21 -80 25
-28 2 -35 7 -33 23 2 26 -19 65 -54 95 -42 38 -51 42 -70 32 -10 -5 -39 -12
-64 -16 -42 -6 -47 -5 -52 15 -5 18 -11 21 -37 16 -26 -6 -32 -3 -39 16 -5 12
-23 54 -41 92 -18 39 -40 93 -50 120 -10 28 -37 95 -60 150 -23 55 -48 118
-55 140 -7 22 -27 72 -44 112 -17 40 -31 79 -31 87 0 13 19 16 103 18 56 2
106 1 111 -1 5 -2 41 -8 80 -12z m461 -2 c10 -8 15 -19 11 -26 -6 -9 -13 -8
-27 5 -33 30 -20 47 16 21z"/>
<path d="M4597 4643 c-13 -13 -7 -21 22 -26 16 -3 36 -13 44 -22 12 -11 24
-13 44 -8 15 4 36 6 46 4 9 -1 17 2 17 7 0 13 -47 24 -70 17 -10 -3 -33 3 -52
15 -36 22 -41 23 -51 13z"/>
<path d="M4935 4550 c-3 -5 0 -12 7 -14 7 -2 34 -11 59 -20 36 -13 53 -14 74
-6 20 8 25 14 18 21 -8 8 -17 8 -32 0 -16 -9 -27 -8 -48 2 -44 23 -71 29 -78
17z"/>
<path d="M58 5157 c-41 -7 -58 -14 -58 -24 0 -11 6 -14 23 -9 12 4 43 11 70
17 26 6 47 12 47 14 0 9 -32 10 -82 2z"/>
<path d="M289 5144 c-1 -5 -1 -12 -1 -15 1 -4 -47 -9 -106 -12 -59 -3 -124
-10 -144 -17 -38 -11 -38 -11 -38 -67 0 -46 3 -54 16 -49 8 3 43 12 77 20 206
47 298 19 457 -136 83 -81 120 -135 155 -223 24 -61 27 -78 21 -142 -5 -69
-31 -167 -64 -247 -27 -64 -175 -207 -252 -244 -98 -46 -177 -57 -287 -38 -50
9 -97 18 -107 22 -12 5 -16 0 -16 -20 0 -23 4 -26 33 -26 25 0 29 3 17 10 -11
7 -3 9 25 4 22 -3 65 -9 95 -14 50 -7 46 -8 -50 -10 -58 -1 -109 -2 -115 0 -6
1 -4 -5 3 -12 10 -10 50 -13 155 -12 141 0 142 0 232 38 96 41 137 63 200 109
38 28 38 27 -8 -16 -26 -25 -47 -49 -47 -53 0 -4 5 -3 12 4 7 7 21 12 32 12
10 0 17 3 13 6 -3 4 14 27 38 53 83 86 177 303 178 411 1 67 -19 168 -47 235
-21 50 -85 147 -94 141 -4 -2 -21 20 -39 50 l-32 54 27 -18 27 -17 -23 31
c-38 55 -94 96 -190 141 -97 45 -151 62 -153 47z m149 -73 c31 -16 73 -47 94
-68 47 -49 178 -253 163 -253 -3 0 -25 30 -49 68 -24 37 -58 80 -75 96 -22 21
-27 32 -19 37 19 12 -57 79 -132 116 -36 18 -59 33 -52 33 7 0 38 -13 70 -29z
m292 -373 c11 -24 19 -59 19 -78 -1 -33 -2 -32 -13 15 -7 28 -18 60 -24 72
-13 24 -15 33 -7 33 4 0 15 -19 25 -42z"/>
<path d="M543 5088 c1 -6 25 -27 52 -46 28 -19 70 -53 94 -76 24 -22 40 -35
36 -27 -5 8 8 2 28 -13 20 -16 37 -31 37 -35 1 -3 12 -19 26 -36 36 -43 19 -1
-21 52 -40 53 -125 126 -191 164 -57 32 -65 35 -61 17z"/>
<path d="M740 4815 c12 -28 30 -63 40 -80 22 -37 39 -113 49 -230 l8 -90 2 75
c0 41 -4 104 -10 140 -11 71 -61 189 -91 217 -18 16 -18 14 2 -32z"/>
<path d="M5200 4701 c0 -18 42 -29 85 -22 46 8 34 22 -17 19 -18 -1 -41 2 -50
6 -11 5 -18 4 -18 -3z"/>
<path d="M5300 4461 c0 -26 110 -35 133 -12 16 16 -20 25 -49 12 -17 -8 -31
-8 -44 -1 -23 12 -40 13 -40 1z"/>
<path d="M5456 4271 c-6 -9 35 -24 43 -15 6 5 -18 24 -31 24 -4 0 -9 -4 -12
-9z"/>
<path d="M5240 2788 c0 -9 5 -20 10 -23 13 -8 13 5 0 25 -8 13 -10 13 -10 -2z"/>
<path d="M5451 2574 c-1 -12 5 -27 13 -33 12 -10 17 -8 27 11 11 21 11 22 -4
9 -15 -12 -18 -10 -26 10 -9 23 -10 23 -10 3z"/>
<path d="M5475 1020 c-3 -5 1 -10 10 -10 9 0 13 5 10 10 -3 6 -8 10 -10 10 -2
0 -7 -4 -10 -10z"/>
<path d="M3317 24 c-14 -14 -6 -24 19 -24 16 0 24 5 22 13 -5 14 -31 21 -41
11z"/>
</g>
</svg>
